Dactyl Mono.sfdir
StartChar: !
Encoding: 33 33 0
Width: 133
InSpiro: 1
        Flags: H
        LayerCount: 2
        Back
        SplineSet
-2147483618 634 m 0
-2147483613 634 l 0
-2147483613 230 l 0
-2147483618 230 l 0
-2147483618 634 l 0
Z
-2147483616 25 m 0
-2147483614 24 -2147483612 25 -2147483611 27 c 0
-2147483609 28 -2147483609 30 -2147483609 32 c 0
-2147483609 33 -2147483609 35 -2147483611 36 c 0
-2147483612 38 -2147483614 39 -2147483616 39 c 0
-2147483617 39 -2147483619 38 -2147483620 36 c 0
-2147483622 35 -2147483623 33 -2147483623 32 c 0
-2147483623 30 -2147483622 28 -2147483620 27 c 0
-2147483619 25 -2147483617 24 -2147483616 25 c 0
Z
Spiro
-2147483618 634 v
-2147483613 634 v
-2147483613 230 v
-2147483618 230 v
-2147483616 25 c
-2147483609 32 c
-2147483616 39 c
-2147483623 32 c
0 0 z
EndSpiro
EndSplineSet
        Fore
        SplineSet
-2147483648 660 m 0
-2147483586 660 l 0
-2147483586 200 l 0
-2147483648 200 l 0
-2147483648 660 l 0
Z
-2147483618 -5 m 0
-2147483609 -1 -2147483601 1 -2147483594 7 c 0
-2147483591 10 -2147483588 13 -2147483586 17 c 0
-2147483584 21 -2147483583 25 -2147483583 30 c 0
-2147483583 34 -2147483584 38 -2147483586 42 c 0
-2147483588 46 -2147483591 49 -2147483594 52 c 0
-2147483601 58 -2147483609 61 -2147483618 65 c 0
-2147483648 176987877 -2147483648 530943008 -2147483648 952379978 c 0
-2147483648 1373817509 -2147483648 1857259104 -2147483648 -2147483648 c 0
-2147483648 -2147483648 -2147483648 -2147483648 -2147483648 -2147483648 c 0
-1907628400 -2147483648 -1454282446 -2147483648 -999598125 -2147483648 c 0
-544866608 -2147483648 -89898578 -2147483648 313135029 -2147483648 c 0
716169417 -2147483648 1067434934 -2147483648 1344681903 -2147483648 c 0
1899195712 1836186100 2147319908 909703813 2147483643 30 c 0
2147483642 -909566079 1899563733 -1835952776 1345263642 -2147483648 c 0
1068110483 -2147483648 716936456 -2147483648 313981800 -2147483648 c 0
-88973465 -2147483648 -543875340 -2147483648 -998563261 -2147483648 c 0
-1453282989 -2147483648 -1906697452 -2147483648 -2147483648 -2147483648 c 0
-2147483648 -2147483648 -2147483648 -2147483648 -2147483648 -2147483648 c 0
-2147483648 -1857753917 -2147483648 -1374258581 -2147483648 -952730417 c 0
-2147483648 -531201478 -2147483648 -177117917 -2147483618 -5 c 0
Z
Spiro
-2147483648 660 v
-2147483586 660 v
-2147483586 200 v
-2147483648 200 v
-2147483618 -5 c
-2147483583 30 c
-2147483618 65 c
2147483643 30 c
0 0 z
EndSpiro
EndSplineSet
        EndChar
StartChar: #
Encoding: 35 35 0
Width: 373
InSpiro: 1
        Flags: H
        LayerCount: 2
        Back
        SplineSet
30 430 m 0
30 434 l 0
274 434 l 0
274 430 l 0
30 430 l 0
Z
30 230 m 0
30 234 l 0
274 234 l 0
274 230 l 0
30 230 l 0
Z
209 634 m 0
214 634 l 0
214 30 l 0
209 30 l 0
209 634 l 0
Z
89 634 m 0
94 634 l 0
94 30 l 0
89 30 l 0
89 634 l 0
Z
Spiro
30 430 v
30 434 v
274 434 v
274 430 v
30 230 v
30 234 v
274 234 v
274 230 v
209 634 v
214 634 v
214 30 v
209 30 v
89 634 v
94 634 v
94 30 v
89 30 v
0 0 z
EndSpiro
EndSplineSet
        Fore
        SplineSet
-1 400 m 0
-1 460 l 0
301 460 l 0
301 400 l 0
-1 400 l 0
Z
-1 200 m 0
-1 260 l 0
301 260 l 0
301 200 l 0
-1 200 l 0
Z
178 660 m 0
241 660 l 0
241 0 l 0
178 0 l 0
178 660 l 0
Z
58 660 m 0
121 660 l 0
121 0 l 0
58 0 l 0
58 660 l 0
Z
Spiro
-1 400 v
-1 460 v
301 460 v
301 400 v
-1 200 v
-1 260 v
301 260 v
301 200 v
178 660 v
241 660 v
241 0 v
178 0 v
58 660 v
121 660 v
121 0 v
58 0 v
0 0 z
EndSpiro
EndSplineSet
        EndChar
StartChar: %
Encoding: 37 37 0
Width: 373
InSpiro: 1
        Flags: H
        LayerCount: 2
        Back
        SplineSet
269 634 m 0
274 634 l 0
34 30 l 0
30 30 l 0
269 634 l 0
Z
30 510 m 0
19 519 12 532 9 546 c 0
6 560 7 575 12 589 c 0
18 602 27 613 39 621 c 0
51 629 65 634 80 634 c 0
94 633 108 629 120 621 c 0
131 613 141 601 146 588 c 0
151 575 152 560 149 546 c 0
146 532 139 519 129 510 c 0
115 497 97 490 79 490 c 0
61 490 43 497 30 510 c 0
Z
126 513 m 0
135 522 142 534 145 547 c 0
148 560 147 574 142 587 c 0
137 600 128 611 117 618 c 0
106 626 92 630 79 630 c 0
65 629 52 625 41 618 c 0
30 610 21 599 16 587 c 0
11 574 10 560 13 547 c 0
16 534 23 522 33 513 c 0
45 501 62 494 79 494 c 0
96 494 113 501 126 513 c 0
Z
273 153 m 0
283 143 290 130 293 116 c 0
296 102 295 87 289 74 c 0
284 61 274 49 263 42 c 0
251 34 237 29 223 30 c 0
208 30 194 34 183 42 c 0
171 50 162 61 157 75 c 0
151 88 150 102 153 116 c 0
156 130 163 143 174 153 c 0
187 165 205 172 223 172 c 0
241 172 259 165 273 153 c 0
Z
177 150 m 0
167 140 160 128 157 115 c 0
154 102 156 88 161 76 c 0
166 63 174 52 186 45 c 0
197 37 210 33 224 34 c 0
237 34 250 38 261 45 c 0
272 53 281 64 286 76 c 0
290 88 292 102 289 115 c 0
286 128 279 140 270 150 c 0
257 161 240 168 223 168 c 0
206 168 189 161 177 150 c 0
Z
Spiro
269 634 v
274 634 v
34 30 v
30 30 v
30 510 c
80 634 c
129 510 c
126 513 c
79 630 c
33 513 c
273 153 c
223 30 c
174 153 c
177 150 c
224 34 c
270 150 c
0 0 z
EndSpiro
EndSplineSet
        Fore
        SplineSet
238 660 m 0
301 660 l 0
61 0 l 0
-1 0 l 0
238 660 l 0
Z
8 488 m 0
-6 501 -16 519 -20 539 c 0
-24 558 -22 579 -15 597 c 0
-7 616 5 632 21 643 c 0
38 654 58 660 78 660 c 0
97 659 117 653 133 642 c 0
150 631 162 615 170 597 c 0
177 578 179 558 175 539 c 0
171 519 161 501 147 488 c 0
128 470 103 459 77 459 c 0
51 459 26 470 8 488 c 0
Z
104 531 m 0
109 536 114 543 116 551 c 0
117 559 117 567 114 574 c 0
111 582 106 588 99 593 c 0
92 597 84 600 77 600 c 0
69 599 61 597 54 592 c 0
48 588 43 581 40 574 c 0
37 566 37 558 39 551 c 0
40 543 45 536 51 531 c 0
58 524 67 520 77 520 c 0
87 520 96 524 104 531 c 0
Z
291 171 m 0
305 157 315 139 319 119 c 0
323 100 321 80 313 61 c 0
306 43 293 27 276 16 c 0
260 5 240 0 221 0 c 0
201 0 181 6 165 17 c 0
149 28 136 44 129 62 c 0
121 80 119 100 124 120 c 0
128 139 137 157 152 171 c 0
170 188 195 199 221 199 c 0
247 199 272 188 291 171 c 0
Z
195 128 m 0
189 122 185 115 183 107 c 0
181 100 182 92 185 84 c 0
188 77 193 70 199 66 c 0
206 62 214 59 222 60 c 0
229 60 237 62 243 67 c 0
250 71 255 77 258 85 c 0
260 92 261 100 259 108 c 0
257 115 253 122 248 128 c 0
240 134 231 138 221 138 c 0
211 138 202 134 195 128 c 0
Z
Spiro
238 660 v
301 660 v
61 0 v
-1 0 v
8 488 c
78 660 c
147 488 c
104 531 c
77 600 c
51 531 c
291 171 c
221 0 c
152 171 c
195 128 c
222 60 c
248 128 c
0 0 z
EndSpiro
EndSplineSet
        EndChar
StartChar: '
Encoding: 39 39 0
Width: 133
InSpiro: 1
        Flags: H
        LayerCount: 2
        Back
        SplineSet
-2147483618 634 m 0
-2147483613 634 l 0
-2147483613 480 l 0
-2147483618 480 l 0
-2147483618 634 l 0
Z
Spiro
-2147483618 634 v
-2147483613 634 v
-2147483613 480 v
-2147483618 480 v
0 0 z
EndSpiro
EndSplineSet
        Fore
        SplineSet
-2147483648 660 m 0
-2147483586 660 l 0
-2147483586 450 l 0
-2147483648 450 l 0
-2147483648 660 l 0
Z
Spiro
-2147483648 660 v
-2147483586 660 v
-2147483586 450 v
-2147483648 450 v
0 0 z
EndSpiro
EndSplineSet
        EndChar
StartChar: )
Encoding: 41 41 0
Width: 373
InSpiro: 1
        Flags: H
        LayerCount: 2
        Back
        SplineSet
30 632 m 0
30 636 l 0
98 620 161 581 205 526 c 0
249 472 274 402 274 332 c 0
274 261 249 191 205 137 c 0
161 82 98 43 30 28 c 0
30 32 l 0
97 47 158 86 201 140 c 0
244 194 269 262 269 332 c 0
269 401 244 469 201 523 c 0
158 577 97 616 30 632 c 0
Z
Spiro
30 632 v
30 636 v
274 332 c
30 28 v
30 32 v
269 332 c
0 0 z
EndSpiro
EndSplineSet
        Fore
        SplineSet
-1 630 m 0
-1 690 l 0
82 675 160 630 215 564 c 0
270 499 301 415 301 330 c 0
301 244 270 160 215 95 c 0
160 29 82 -15 -1 -30 c 0
-1 30 l 0
66 45 127 84 170 138 c 0
213 192 238 260 238 330 c 0
238 399 213 467 170 521 c 0
127 575 66 614 -1 630 c 0
Z
Spiro
-1 630 v
-1 690 v
301 330 c
-1 -30 v
-1 30 v
238 330 c
0 0 z
EndSpiro
EndSplineSet
        EndChar
StartChar: ,
Encoding: 44 44 0
Width: 373
InSpiro: 1
        Flags: H
        LayerCount: 2
        Back
        SplineSet
274 34 m 0
274 30 l 0
265 28 l 0
265 32 l 0
274 34 l 0
Z
Spiro
274 34 v
274 30 v
265 28 v
265 32 v
0 0 z
EndSpiro
EndSplineSet
        Fore
        SplineSet
301 60 m 0
301 0 l 0
190 -30 l 0
190 30 l 0
301 60 l 0
Z
Spiro
301 60 v
301 0 v
190 -30 v
190 30 v
0 0 z
EndSpiro
EndSplineSet
        EndChar
StartChar: .
Encoding: 46 46 0
Width: 373
InSpiro: 1
        Flags: H
        LayerCount: 2
        Back
        SplineSet
272 25 m 0
273 25 275 25 276 27 c 0
278 28 278 30 279 32 c 0
279 33 278 35 276 36 c 0
275 38 273 39 272 39 c 0
270 38 268 38 267 36 c 0
265 35 265 33 265 32 c 0
264 30 265 28 267 27 c 0
268 25 270 24 272 25 c 0
Z
Spiro
272 25 c
279 32 c
272 39 c
265 32 c
0 0 z
EndSpiro
EndSplineSet
        Fore
        SplineSet
270 -5 m 0
279 -4 288 -1 294 5 c 0
301 11 304 20 305 30 c 0
305 39 301 48 294 54 c 0
288 61 279 65 270 65 c 0
260 64 251 61 245 54 c 0
238 48 235 39 235 30 c 0
234 20 238 11 245 5 c 0
251 -1 260 -5 270 -5 c 0
Z
Spiro
270 -5 c
305 30 c
270 65 c
235 30 c
0 0 z
EndSpiro
EndSplineSet
        EndChar
StartChar: /
Encoding: 47 47 0
Width: 373
InSpiro: 1
        Flags: H
        LayerCount: 2
        Back
        SplineSet
269 636 m 0
274 636 l 0
22 28 l 0
17 28 l 0
269 636 l 0
Z
Spiro
269 636 v
274 636 v
22 28 v
17 28 v
0 0 z
EndSpiro
EndSplineSet
        Fore
        SplineSet
238 690 m 0
301 690 l 0
91 -30 l 0
28 -30 l 0
238 690 l 0
Z
Spiro
238 690 v
301 690 v
91 -30 v
28 -30 v
0 0 z
EndSpiro
EndSplineSet
        EndChar
StartChar: 0
Encoding: 48 48 0
Width: 373
InSpiro: 1
        Flags: H
        LayerCount: 2
        Back
        SplineSet
34 332 m 0
34 271 22 210 34 151 c 0
40 122 52 93 72 71 c 0
92 49 121 33 152 34 c 0
182 34 210 49 231 71 c 0
251 93 263 122 268 152 c 0
280 211 268 271 269 332 c 0
269 392 280 452 269 511 c 0
263 541 251 570 231 592 c 0
210 614 182 629 152 630 c 0
121 630 92 614 72 592 c 0
52 570 40 541 34 512 c 0
22 453 34 392 34 332 c 0
Z
151 634 m 0
181 634 211 619 232 596 c 0
253 574 265 544 272 514 c 0
285 454 274 392 274 331 c 0
273 269 284 208 271 148 c 0
265 118 252 89 231 67 c 0
211 44 181 29 151 30 c 0
120 30 91 45 70 67 c 0
50 90 37 119 31 149 c 0
19 208 30 270 30 331 c 0
29 392 18 454 31 514 c 0
37 543 49 573 70 595 c 0
91 618 120 633 151 634 c 0
Z
269 634 m 0
274 634 l 0
34 30 l 0
30 30 l 0
269 634 l 0
Z
Spiro
34 332 c
152 34 c
269 332 c
152 630 c
151 634 c
274 331 c
151 30 c
30 331 c
269 634 v
274 634 v
34 30 v
30 30 v
0 0 z
EndSpiro
EndSplineSet
        Fore
        SplineSet
61 330 m 0
61 276 46 222 52 169 c 0
55 142 63 116 80 95 c 0
89 85 99 76 111 69 c 0
123 63 136 59 150 60 c 0
163 60 176 63 188 70 c 0
200 76 210 85 218 95 c 0
235 116 244 143 246 169 c 0
252 223 237 276 238 330 c 0
238 383 252 436 247 490 c 0
244 516 235 543 218 564 c 0
210 574 200 583 188 589 c 0
176 596 163 599 150 600 c 0
136 600 123 596 111 590 c 0
99 583 89 574 80 564 c 0
64 543 55 517 52 490 c 0
46 437 61 383 61 330 c 0
Z
149 660 m 0
183 660 216 644 240 620 c 0
265 596 281 565 290 532 c 0
309 466 301 397 301 329 c 0
300 261 308 191 289 126 c 0
280 93 264 62 240 39 c 0
215 15 182 0 149 0 c 0
115 0 82 16 58 39 c 0
34 63 18 94 9 127 c 0
-8 192 0 261 -1 329 c 0
-1 396 -9 466 8 531 c 0
18 564 33 595 58 619 c 0
82 643 115 659 149 660 c 0
Z
238 660 m 0
301 660 l 0
61 0 l 0
-1 0 l 0
238 660 l 0
Z
Spiro
61 330 c
150 60 c
238 330 c
150 600 c
149 660 c
301 329 c
149 0 c
-1 329 c
238 660 v
301 660 v
61 0 v
-1 0 v
0 0 z
EndSpiro
EndSplineSet
        EndChar
StartChar: 2
Encoding: 50 50 0
Width: 373
InSpiro: 1
        Flags: H
        LayerCount: 2
        Back
        SplineSet
34 530 m 0
30 530 l 0
32 559 46 588 69 607 c 0
91 626 122 635 152 633 c 0
187 629 219 608 240 580 c 0
261 552 272 517 274 482 c 0
276 429 261 376 238 329 c 0
214 282 183 238 153 196 c 0
36 33 l 0
274 34 l 0
274 30 l 0
30 30 l 0
30 30 l 0
150 199 l 0
180 241 210 284 233 330 c 0
256 377 271 429 269 481 c 0
267 515 257 550 237 578 c 0
216 606 185 626 151 630 c 0
122 632 92 623 71 604 c 0
49 586 35 558 34 530 c 0
Z
Spiro
34 530 v
30 530 v
152 633 c
274 482 c
153 196 [
36 33 v
274 34 v
274 30 v
30 30 v
30 30 v
150 199 ]
269 481 c
151 630 c
0 0 z
EndSpiro
EndSplineSet
        Fore
        SplineSet
61 500 m 0
-1 500 l 0
-6 542 7 586 37 617 c 0
66 647 110 663 153 659 c 0
194 654 233 630 259 597 c 0
284 564 298 522 301 481 c 0
304 425 288 369 264 319 c 0
240 269 207 223 175 178 c 0
90 59 l 0
301 60 l 0
301 0 l 0
-1 0 l 0
-1 0 l 0
124 213 l 0
148 254 174 296 196 339 c 0
219 382 238 429 238 478 c 0
237 506 231 534 215 557 c 0
207 569 197 579 185 586 c 0
173 594 159 598 146 600 c 0
120 601 94 591 77 571 c 0
61 552 54 524 61 500 c 0
Z
Spiro
61 500 v
-1 500 v
153 659 c
301 481 c
175 178 [
90 59 v
301 60 v
301 0 v
-1 0 v
-1 0 v
124 213 ]
238 478 c
146 600 c
0 0 z
EndSpiro
EndSplineSet
        EndChar
StartChar: 3
Encoding: 51 51 0
Width: 373
InSpiro: 1
        Flags: H
        LayerCount: 2
        Back
        SplineSet
180 23 m 0
181 22 183 23 184 25 c 0
186 26 187 28 187 30 c 0
186 31 186 33 184 34 c 0
183 36 181 36 180 37 c 0
178 37 176 36 175 34 c 0
173 33 173 31 173 30 c 0
172 28 173 26 175 25 c 0
176 23 178 22 180 23 c 0
Z
180 23 m 0
181 22 183 23 184 25 c 0
186 26 187 28 187 30 c 0
186 31 186 33 184 34 c 0
183 36 181 36 180 37 c 0
178 37 176 36 175 34 c 0
173 33 173 31 173 30 c 0
172 28 173 26 175 25 c 0
176 23 178 22 180 23 c 0
Z
Spiro
180 23 c
187 30 c
180 37 c
173 30 c
180 23 c
187 30 c
180 37 c
173 30 c
0 0 z
EndSpiro
EndSplineSet
        Fore
        SplineSet
150 -35 m 0
159 -35 168 -31 174 -24 c 0
181 -18 185 -9 185 0 c 0
184 9 181 18 174 24 c 0
168 31 159 34 150 35 c 0
140 35 131 31 125 24 c 0
118 18 115 9 115 0 c 0
114 -9 118 -18 125 -24 c 0
131 -31 140 -35 150 -35 c 0
Z
150 -35 m 0
159 -35 168 -31 174 -24 c 0
181 -18 185 -9 185 0 c 0
184 9 181 18 174 24 c 0
168 31 159 34 150 35 c 0
140 35 131 31 125 24 c 0
118 18 115 9 115 0 c 0
114 -9 118 -18 125 -24 c 0
131 -31 140 -35 150 -35 c 0
Z
Spiro
150 -35 c
185 0 c
150 35 c
115 0 c
150 -35 c
185 0 c
150 35 c
115 0 c
0 0 z
EndSpiro
EndSplineSet
        EndChar
StartChar: 4
Encoding: 52 52 0
Width: 373
InSpiro: 1
        Flags: H
        LayerCount: 2
        Back
        SplineSet
226 30 m 0
221 30 l 0
221 622 l 0
35 184 l 0
274 184 l 0
274 180 l 0
30 180 l 0
30 180 l 0
221 634 l 0
226 634 l 0
226 30 l 0
Z
Spiro
226 30 v
221 30 v
221 622 v
35 184 v
274 184 v
274 180 v
30 180 v
30 180 v
221 634 v
226 634 v
0 0 z
EndSpiro
EndSplineSet
        Fore
        SplineSet
253 0 m 0
190 0 l 0
191 483 l 0
76 210 l 0
301 210 l 0
301 150 l 0
-1 150 l 0
-1 150 l 0
190 660 l 0
253 660 l 0
253 0 l 0
Z
Spiro
253 0 v
190 0 v
191 483 v
76 210 v
301 210 v
301 150 v
-1 150 v
-1 150 v
190 660 v
253 660 v
0 0 z
EndSpiro
EndSplineSet
        EndChar
StartChar: 5
Encoding: 53 53 0
Width: 373
InSpiro: 1
        Flags: H
        LayerCount: 2
        Back
        SplineSet
274 634 m 0
274 630 l 0
34 630 l 0
34 330 l 0
30 330 l 0
30 634 l 0
30 634 l 0
274 634 l 0
Z
34 330 m 0
30 330 l 0
30 360 44 389 67 408 c 0
90 428 122 437 152 433 c 0
173 429 193 420 210 406 c 0
226 393 239 375 249 356 c 0
269 318 274 274 274 231 c 0
273 188 268 144 249 106 c 0
239 87 226 69 209 56 c 0
193 42 173 33 152 30 c 0
122 25 90 34 67 54 c 0
44 74 30 103 30 134 c 0
34 134 l 0
34 104 47 75 69 56 c 0
91 37 122 28 151 33 c 0
171 35 191 45 207 58 c 0
224 72 236 89 246 108 c 0
264 146 269 189 269 232 c 0
268 273 264 317 245 354 c 0
236 373 223 390 207 404 c 0
191 417 171 427 151 430 c 0
122 434 91 425 69 406 c 0
47 387 34 359 34 330 c 0
Z
Spiro
274 634 v
274 630 v
34 630 v
34 330 v
30 330 v
30 634 v
30 634 v
34 330 v
30 330 v
152 433 c
274 231 c
152 30 c
30 134 v
34 134 v
151 33 c
269 232 c
151 430 c
0 0 z
EndSpiro
EndSplineSet
        Fore
        SplineSet
301 660 m 0
301 600 l 0
61 600 l 0
61 300 l 0
-1 300 l 0
-1 660 l 0
-1 660 l 0
301 660 l 0
Z
61 300 m 0
-1 300 l 0
-9 342 4 388 35 419 c 0
65 450 111 465 154 459 c 0
178 455 201 444 221 429 c 0
240 413 256 394 268 372 c 0
292 329 301 278 301 229 c 0
300 179 292 129 268 86 c 0
256 64 240 45 220 29 c 0
201 14 178 3 154 0 c 0
111 -7 64 8 34 39 c 0
4 70 -9 117 -1 160 c 0
61 160 l 0
57 147 56 134 58 121 c 0
61 108 67 96 75 86 c 0
83 76 94 68 106 63 c 0
118 59 132 57 145 59 c 0
162 61 179 69 192 81 c 0
205 93 215 108 222 124 c 0
236 157 238 194 238 230 c 0
237 265 236 301 222 334 c 0
215 350 205 365 192 377 c 0
179 389 162 397 145 400 c 0
119 403 92 392 75 372 c 0
59 353 53 324 61 300 c 0
Z
Spiro
301 660 v
301 600 v
61 600 v
61 300 v
-1 300 v
-1 660 v
-1 660 v
61 300 v
-1 300 v
154 459 c
301 229 c
154 0 c
-1 160 v
61 160 v
145 59 c
238 230 c
145 400 c
0 0 z
EndSpiro
EndSplineSet
        EndChar
StartChar: 7
Encoding: 55 55 0
Width: 373
InSpiro: 1
        Flags: H
        LayerCount: 2
        Back
        SplineSet
30 630 m 0
30 634 l 0
274 634 l 0
274 634 l 0
154 30 l 0
149 30 l 0
269 630 l 0
30 630 l 0
Z
Spiro
30 630 v
30 634 v
274 634 v
274 634 v
154 30 v
149 30 v
269 630 v
0 0 z
EndSpiro
EndSplineSet
        Fore
        SplineSet
-1 600 m 0
-1 660 l 0
301 660 l 0
301 660 l 0
181 0 l 0
118 0 l 0
232 600 l 0
-1 600 l 0
Z
Spiro
-1 600 v
-1 660 v
301 660 v
301 660 v
181 0 v
118 0 v
232 600 v
0 0 z
EndSpiro
EndSplineSet
        EndChar
StartChar: 8
Encoding: 56 56 0
Width: 373
InSpiro: 1
        Flags: H
        LayerCount: 2
        Back
        SplineSet
151 630 m 0
115 629 80 611 58 583 c 0
36 555 27 517 34 482 c 0
39 449 57 420 78 396 c 0
100 372 126 352 153 333 c 0
179 313 206 293 228 268 c 0
250 244 268 214 274 182 c 0
280 145 271 106 248 77 c 0
225 48 189 29 152 30 c 0
115 30 78 48 55 77 c 0
32 106 23 145 30 182 c 0
35 214 53 244 75 268 c 0
97 293 123 313 150 333 c 0
176 352 202 372 224 396 c 0
245 420 263 449 269 482 c 0
275 517 266 555 244 583 c 0
222 612 186 630 151 630 c 0
Z
274 481 m 0
268 448 250 418 228 394 c 0
206 369 179 349 153 330 c 0
126 310 100 290 78 266 c 0
57 242 39 213 34 181 c 0
27 145 36 108 58 80 c 0
80 51 115 34 151 34 c 0
186 33 222 51 244 79 c 0
266 107 275 145 269 181 c 0
263 213 245 242 224 266 c 0
202 290 176 310 150 330 c 0
123 349 97 369 75 394 c 0
53 419 35 448 30 481 c 0
23 517 32 556 55 586 c 0
78 615 114 633 152 634 c 0
189 634 225 615 248 586 c 0
271 557 280 517 274 481 c 0
Z
Spiro
151 630 c
34 482 c
153 333 a
233 273 h
274 182 c
152 30 c
30 182 c
150 333 a
230 393 h
269 482 c
274 481 c
153 330 a
73 270 h
34 181 c
151 34 c
269 181 c
150 330 a
70 390 h
30 481 c
152 634 c
0 0 z
EndSpiro
EndSplineSet
        Fore
        SplineSet
149 600 m 0
121 599 94 585 78 563 c 0
62 541 56 512 61 485 c 0
66 456 82 431 102 410 c 0
121 389 145 371 168 354 c 0
197 331 226 309 250 281 c 0
275 254 294 221 301 185 c 0
309 140 297 92 268 56 c 0
240 21 195 0 150 0 c 0
104 0 60 22 31 57 c 0
3 92 -8 140 -1 185 c 0
5 221 23 254 47 282 c 0
71 309 101 332 131 354 c 0
154 371 177 388 197 409 c 0
217 430 233 456 238 485 c 0
242 512 236 541 220 563 c 0
203 585 176 600 149 600 c 0
Z
301 474 m 0
294 438 275 405 250 377 c 0
226 350 197 327 168 306 c 0
144 288 121 271 101 249 c 0
81 228 65 202 61 174 c 0
56 147 62 118 78 96 c 0
95 74 121 60 149 60 c 0
176 59 203 74 219 95 c 0
236 117 242 146 238 174 c 0
233 202 217 228 197 249 c 0
177 271 154 288 131 306 c 0
101 327 72 350 48 377 c 0
24 405 5 438 -1 474 c 0
-9 518 2 566 31 602 c 0
59 637 104 659 150 660 c 0
195 660 240 638 269 602 c 0
297 567 309 518 301 474 c 0
Z
Spiro
149 600 c
61 485 c
168 354 a
248 293 h
301 185 c
150 0 c
-1 185 c
131 354 a
211 413 h
238 485 c
301 474 c
168 306 a
88 246 h
61 174 c
149 60 c
238 174 c
131 306 a
51 366 h
-1 474 c
150 660 c
0 0 z
EndSpiro
EndSplineSet
        EndChar
StartChar: A
Encoding: 65 65 0
Width: 373
InSpiro: 1
        Flags: H
        LayerCount: 2
        Back
        SplineSet
34 30 m 0
30 30 l 0
58 182 l 0
149 634 l 0
154 634 l 0
244 182 l 0
274 30 l 0
269 30 l 0
239 181 l 0
151 621 l 0
63 181 l 0
34 30 l 0
Z
58 180 m 0
58 184 l 0
244 184 l 0
244 180 l 0
58 180 l 0
Z
Spiro
34 30 v
30 30 v
58 182 v
149 634 v
154 634 v
244 182 v
274 30 v
269 30 v
239 181 v
151 621 v
63 181 v
58 180 v
58 184 v
244 184 v
244 180 v
0 0 z
EndSpiro
EndSplineSet
        Fore
        SplineSet
61 0 m 0
-1 0 l 0
28 185 l 0
118 660 l 0
181 660 l 0
270 185 l 0
301 0 l 0
238 0 l 0
209 174 l 0
149 477 l 0
89 174 l 0
61 0 l 0
Z
27 150 m 0
27 210 l 0
271 210 l 0
271 150 l 0
27 150 l 0
Z
Spiro
61 0 v
-1 0 v
28 185 v
118 660 v
181 660 v
270 185 v
301 0 v
238 0 v
209 174 v
149 477 v
89 174 v
27 150 v
27 210 v
271 210 v
271 150 v
0 0 z
EndSpiro
EndSplineSet
        EndChar
StartChar: B
Encoding: 66 66 0
Width: 373
InSpiro: 1
        Flags: H
        LayerCount: 2
        Back
        SplineSet
34 30 m 0
30 30 l 0
30 634 l 0
30 634 l 0
152 634 l 0
171 634 190 633 208 627 c 0
227 620 243 609 254 593 c 0
265 577 270 558 273 539 c 0
275 520 274 501 274 482 c 0
274 462 275 443 272 424 c 0
270 405 265 386 254 370 c 0
243 354 226 343 208 336 c 0
190 330 171 329 152 330 c 0
30 330 l 0
30 334 l 0
152 334 l 0
170 334 189 334 207 340 c 0
224 346 240 358 250 373 c 0
261 389 266 407 268 426 c 0
270 444 269 463 269 482 c 0
269 500 270 519 268 537 c 0
266 556 261 574 250 590 c 0
240 605 224 617 207 623 c 0
189 629 170 630 152 630 c 0
34 630 l 0
34 30 l 0
Z
30 330 m 0
30 334 l 0
152 334 l 0
171 334 190 333 208 327 c 0
227 320 243 309 254 293 c 0
265 277 270 258 273 239 c 0
275 220 274 201 274 182 c 0
274 162 275 143 272 124 c 0
270 105 265 86 254 70 c 0
243 54 226 43 208 36 c 0
190 30 171 29 152 30 c 0
30 30 l 0
30 34 l 0
152 34 l 0
170 34 189 34 207 40 c 0
224 46 240 58 250 73 c 0
261 89 266 107 268 126 c 0
270 144 269 163 269 182 c 0
269 200 270 219 268 237 c 0
266 256 261 274 250 290 c 0
240 305 224 317 207 323 c 0
189 329 170 330 152 330 c 0
30 330 l 0
Z
Spiro
34 30 v
30 30 v
30 634 v
30 634 v
152 634 ]
274 482 c
152 330 [
30 330 v
30 334 v
152 334 ]
269 482 c
152 630 [
34 630 v
30 330 v
30 334 v
152 334 ]
274 182 c
152 30 [
30 30 v
30 34 v
152 34 ]
269 182 c
152 330 [
0 0 z
EndSpiro
EndSplineSet
        Fore
        SplineSet
61 0 m 0
-1 0 l 0
-1 660 l 0
-1 660 l 0
150 660 l 0
173 660 196 659 218 652 c 0
240 644 259 631 273 612 c 0
287 594 295 571 298 548 c 0
301 526 301 503 301 480 c 0
301 456 301 433 298 411 c 0
295 388 287 365 273 347 c 0
259 328 240 315 218 307 c 0
196 300 173 299 150 300 c 0
-1 300 l 0
-1 360 l 0
150 360 l 0
164 360 179 360 193 365 c 0
207 370 219 380 227 393 c 0
235 405 238 420 238 435 c 0
239 450 238 465 238 480 c 0
238 494 239 509 238 524 c 0
238 539 234 554 227 566 c 0
219 579 207 589 193 594 c 0
179 599 164 599 150 600 c 0
61 600 l 0
61 0 l 0
Z
-1 300 m 0
-1 360 l 0
150 360 l 0
173 360 196 359 218 352 c 0
240 344 259 331 273 312 c 0
287 294 295 271 298 248 c 0
301 226 301 203 301 180 c 0
301 156 301 133 298 111 c 0
295 88 287 65 273 47 c 0
259 28 240 15 218 7 c 0
196 0 173 0 150 0 c 0
-1 0 l 0
-1 60 l 0
150 60 l 0
164 60 179 60 193 65 c 0
207 70 219 80 227 93 c 0
235 105 238 120 238 135 c 0
239 150 238 165 238 180 c 0
238 194 239 209 238 224 c 0
238 239 234 254 227 266 c 0
219 279 207 289 193 294 c 0
179 299 164 299 150 300 c 0
-1 300 l 0
Z
Spiro
61 0 v
-1 0 v
-1 660 v
-1 660 v
150 660 ]
301 480 c
150 300 [
-1 300 v
-1 360 v
150 360 ]
238 480 c
150 600 [
61 600 v
-1 300 v
-1 360 v
150 360 ]
301 180 c
150 0 [
-1 0 v
-1 60 v
150 60 ]
238 180 c
150 300 [
0 0 z
EndSpiro
EndSplineSet
        EndChar
StartChar: C
Encoding: 67 67 0
Width: 373
InSpiro: 1
        Flags: H
        LayerCount: 2
        Back
        SplineSet
274 530 m 0
269 530 l 0
268 558 254 587 232 606 c 0
210 624 180 633 152 630 c 0
122 626 96 609 76 587 c 0
57 564 45 536 39 508 c 0
26 450 34 390 34 332 c 0
33 272 25 212 38 155 c 0
45 126 57 98 76 75 c 0
95 53 122 36 152 33 c 0
180 29 211 38 233 57 c 0
255 76 268 104 269 134 c 0
274 134 l 0
273 103 259 73 236 54 c 0
212 34 181 25 151 30 c 0
121 34 94 51 75 73 c 0
55 96 43 124 36 153 c 0
22 211 29 272 30 332 c 0
30 391 22 451 36 509 c 0
43 538 56 566 75 589 c 0
94 611 121 628 151 633 c 0
180 637 212 628 235 609 c 0
258 589 273 560 274 530 c 0
Z
Spiro
274 530 v
269 530 v
152 630 c
34 332 c
152 33 c
269 134 v
274 134 v
151 30 c
30 332 c
151 633 c
0 0 z
EndSpiro
EndSplineSet
        Fore
        SplineSet
301 500 m 0
238 500 l 0
243 524 237 551 221 571 c 0
204 590 179 601 154 600 c 0
127 598 102 583 86 562 c 0
69 541 60 515 56 489 c 0
48 436 61 383 61 330 c 0
60 276 48 223 56 170 c 0
60 143 69 117 85 96 c 0
102 75 127 60 154 59 c 0
179 57 205 68 221 88 c 0
237 107 244 135 238 160 c 0
301 160 l 0
310 116 297 69 266 37 c 0
235 6 188 -8 145 0 c 0
112 6 83 24 61 48 c 0
39 73 24 103 14 134 c 0
-4 197 -1 264 -1 330 c 0
0 395 -3 462 15 524 c 0
24 556 39 585 61 610 c 0
83 634 112 652 145 659 c 0
188 667 235 652 265 621 c 0
296 590 310 542 301 500 c 0
Z
Spiro
301 500 v
238 500 v
154 600 c
61 330 c
154 59 c
238 160 v
301 160 v
145 0 c
-1 330 c
145 659 c
0 0 z
EndSpiro
EndSplineSet
        EndChar
StartChar: D
Encoding: 68 68 0
Width: 373
InSpiro: 1
        Flags: H
        LayerCount: 2
        Back
        SplineSet
30 30 m 0
30 30 l 0
30 634 l 0
30 634 l 0
152 634 l 0
171 633 190 633 208 626 c 0
226 620 241 607 252 592 c 0
263 576 268 557 271 538 c 0
274 520 274 501 274 482 c 0
274 182 l 0
274 162 274 143 271 125 c 0
268 106 263 87 252 71 c 0
241 56 226 43 208 37 c 0
190 30 171 29 152 30 c 0
30 30 l 0
Z
152 34 m 0
170 33 189 34 206 41 c 0
223 47 238 59 248 75 c 0
259 90 264 108 266 126 c 0
269 145 269 163 269 182 c 0
269 482 l 0
268 500 269 518 266 537 c 0
264 555 259 573 248 588 c 0
238 604 223 616 206 622 c 0
189 629 170 630 152 630 c 0
34 630 l 0
34 34 l 0
152 34 l 0
Z
Spiro
30 30 v
30 30 v
30 634 v
30 634 v
152 634 ]
274 482 [
274 182 ]
152 30 [
152 34 ]
269 182 [
269 482 ]
152 630 [
34 630 v
34 34 v
0 0 z
EndSpiro
EndSplineSet
        Fore
        SplineSet
-1 0 m 0
-1 0 l 0
-1 660 l 0
-1 660 l 0
150 660 l 0
172 659 196 659 217 651 c 0
239 644 258 630 272 611 c 0
286 593 293 571 297 548 c 0
301 525 301 502 301 480 c 0
301 180 l 0
300 157 301 134 297 111 c 0
293 88 286 66 272 48 c 0
258 29 239 15 217 8 c 0
196 0 172 0 150 0 c 0
-1 0 l 0
Z
150 60 m 0
164 60 179 60 192 66 c 0
206 71 217 82 224 94 c 0
232 107 235 121 236 136 c 0
238 150 238 165 238 180 c 0
238 480 l 0
238 494 238 509 236 523 c 0
235 538 232 552 224 565 c 0
217 577 206 588 192 593 c 0
179 599 164 599 150 600 c 0
61 600 l 0
61 60 l 0
150 60 l 0
Z
Spiro
-1 0 v
-1 0 v
-1 660 v
-1 660 v
150 660 ]
301 480 [
301 180 ]
150 0 [
150 60 ]
238 180 [
238 480 ]
150 600 [
61 600 v
61 60 v
0 0 z
EndSpiro
EndSplineSet
        EndChar
StartChar: G
Encoding: 71 71 0
Width: 373
InSpiro: 1
        Flags: H
        LayerCount: 2
        Back
        SplineSet
274 530 m 0
269 530 l 0
268 558 254 587 232 606 c 0
210 624 180 633 152 630 c 0
122 626 96 609 76 586 c 0
57 564 45 536 39 507 c 0
26 449 34 390 34 331 c 0
33 271 24 211 37 153 c 0
44 124 56 96 75 74 c 0
95 52 122 35 152 33 c 0
170 31 188 34 204 42 c 0
221 50 235 62 245 77 c 0
255 92 262 109 265 127 c 0
268 145 269 163 269 182 c 0
269 330 l 0
149 330 l 0
149 334 l 0
274 334 l 0
274 334 l 0
274 182 l 0
273 163 273 144 270 125 c 0
266 107 260 89 249 73 c 0
238 58 223 45 206 38 c 0
188 30 169 27 151 30 c 0
121 33 93 50 74 72 c 0
54 95 42 123 35 152 c 0
21 211 29 272 30 332 c 0
30 391 23 451 37 509 c 0
44 538 56 566 75 589 c 0
94 611 121 628 151 633 c 0
180 637 212 628 235 609 c 0
258 589 273 560 274 530 c 0
Z
Spiro
274 530 v
269 530 v
152 630 c
34 331 c
152 33 c
269 182 [
269 330 v
149 330 v
149 334 v
274 334 v
274 334 v
274 182 ]
151 30 c
30 332 c
151 633 c
0 0 z
EndSpiro
EndSplineSet
        Fore
        SplineSet
301 500 m 0
238 500 l 0
244 524 237 551 221 571 c 0
205 590 179 601 154 600 c 0
127 598 102 582 86 561 c 0
69 541 60 514 57 488 c 0
49 435 61 382 61 329 c 0
60 275 45 221 53 167 c 0
56 141 65 114 83 94 c 0
91 83 102 74 114 68 c 0
126 62 139 58 153 59 c 0
166 59 180 62 192 70 c 0
204 77 214 87 221 99 c 0
229 111 233 124 235 138 c 0
237 152 238 166 238 180 c 0
238 300 l 0
118 300 l 0
118 360 l 0
301 360 l 0
301 360 l 0
301 180 l 0
300 156 300 133 296 110 c 0
291 88 282 66 268 47 c 0
254 29 235 14 214 6 c 0
192 -1 168 -4 146 0 c 0
113 5 83 23 61 47 c 0
39 72 23 102 14 133 c 0
-4 196 -1 264 -1 330 c 0
0 395 -3 462 15 524 c 0
24 555 39 585 61 610 c 0
83 634 112 652 145 659 c 0
188 667 235 653 265 621 c 0
296 590 310 542 301 500 c 0
Z
Spiro
301 500 v
238 500 v
154 600 c
61 329 c
153 59 c
238 180 [
238 300 v
118 300 v
118 360 v
301 360 v
301 360 v
301 180 ]
146 0 c
-1 330 c
145 659 c
0 0 z
EndSpiro
EndSplineSet
        EndChar
StartChar: I
Encoding: 73 73 0
Width: 373
InSpiro: 1
        Flags: H
        LayerCount: 2
        Back
        SplineSet
149 634 m 0
154 634 l 0
154 30 l 0
149 30 l 0
149 634 l 0
Z
30 30 m 0
30 34 l 0
274 34 l 0
274 30 l 0
30 30 l 0
Z
30 630 m 0
30 634 l 0
274 634 l 0
274 630 l 0
30 630 l 0
Z
Spiro
149 634 v
154 634 v
154 30 v
149 30 v
30 30 v
30 34 v
274 34 v
274 30 v
30 630 v
30 634 v
274 634 v
274 630 v
0 0 z
EndSpiro
EndSplineSet
        Fore
        SplineSet
118 660 m 0
181 660 l 0
181 0 l 0
150 0 l 0
118 0 l 0
118 660 l 0
Z
-1 0 m 0
-1 60 l 0
301 60 l 0
301 0 l 0
-1 0 l 0
Z
-1 600 m 0
-1 660 l 0
301 660 l 0
301 600 l 0
-1 600 l 0
Z
Spiro
118 660 v
181 660 v
181 0 v
150 0 c
118 0 v
-1 0 v
-1 60 v
301 60 v
301 0 v
-1 600 v
-1 660 v
301 660 v
301 600 v
0 0 z
EndSpiro
EndSplineSet
        EndChar
StartChar: J
Encoding: 74 74 0
Width: 373
InSpiro: 1
        Flags: H
        LayerCount: 2
        Back
        SplineSet
30 630 m 0
30 634 l 0
274 634 l 0
274 634 l 0
274 332 l 0
274 273 275 213 261 156 c 0
254 127 243 99 224 76 c 0
206 53 180 35 152 30 c 0
121 24 89 32 66 52 c 0
42 72 29 103 30 134 c 0
34 134 l 0
32 104 45 74 68 55 c 0
90 36 121 27 151 33 c 0
179 38 204 56 222 79 c 0
240 102 251 129 257 158 c 0
271 214 268 273 269 332 c 0
269 630 l 0
30 630 l 0
Z
Spiro
30 630 v
30 634 v
274 634 v
274 634 v
274 332 ]
152 30 c
30 134 v
34 134 v
151 33 c
269 332 [
269 630 v
0 0 z
EndSpiro
EndSplineSet
        Fore
        SplineSet
-1 600 m 0
-1 660 l 0
301 660 l 0
301 660 l 0
301 330 l 0
301 264 301 198 282 136 c 0
273 104 258 74 236 50 c 0
215 25 186 7 155 0 c 0
133 -4 110 -3 89 2 c 0
67 8 48 20 32 36 c 0
16 52 5 72 0 93 c 0
-6 115 -6 138 -1 160 c 0
61 160 l 0
56 147 55 134 57 121 c 0
59 108 65 96 73 85 c 0
82 75 93 67 105 63 c 0
117 58 131 57 144 59 c 0
156 60 169 66 179 73 c 0
190 81 199 90 206 101 c 0
221 123 229 148 233 174 c 0
241 225 237 278 238 330 c 0
238 600 l 0
-1 600 l 0
Z
Spiro
-1 600 v
-1 660 v
301 660 v
301 660 v
301 330 ]
155 0 c
-1 160 v
61 160 v
144 59 c
238 330 [
238 600 v
0 0 z
EndSpiro
EndSplineSet
        EndChar
StartChar: L
Encoding: 76 76 0
Width: 373
InSpiro: 1
        Flags: H
        LayerCount: 2
        Back
        SplineSet
30 634 m 0
34 634 l 0
34 34 l 0
274 34 l 0
274 30 l 0
30 30 l 0
30 30 l 0
30 634 l 0
Z
Spiro
30 634 v
34 634 v
34 34 v
274 34 v
274 30 v
30 30 v
30 30 v
0 0 z
EndSpiro
EndSplineSet
        Fore
        SplineSet
-1 660 m 0
61 660 l 0
61 60 l 0
301 60 l 0
301 0 l 0
-1 0 l 0
-1 0 l 0
-1 660 l 0
Z
Spiro
-1 660 v
61 660 v
61 60 v
301 60 v
301 0 v
-1 0 v
-1 0 v
0 0 z
EndSpiro
EndSplineSet
        EndChar
StartChar: M
Encoding: 77 77 0
Width: 373
InSpiro: 1
        Flags: H
        LayerCount: 2
        Back
        SplineSet
34 30 m 0
30 30 l 0
30 634 l 0
34 634 l 0
152 42 l 0
269 634 l 0
274 634 l 0
274 30 l 0
269 30 l 0
269 611 l 0
154 30 l 0
149 30 l 0
34 611 l 0
34 30 l 0
Z
Spiro
34 30 v
30 30 v
30 634 v
34 634 v
152 42 v
269 634 v
274 634 v
274 30 v
269 30 v
269 611 v
154 30 v
149 30 v
34 611 v
0 0 z
EndSpiro
EndSplineSet
        Fore
        SplineSet
61 0 m 0
-1 0 l 0
-1 660 l 0
61 660 l 0
150 182 l 0
238 660 l 0
301 660 l 0
301 0 l 0
238 0 l 0
239 327 l 0
181 0 l 0
118 0 l 0
60 327 l 0
61 0 l 0
Z
Spiro
61 0 v
-1 0 v
-1 660 v
61 660 v
150 182 v
238 660 v
301 660 v
301 0 v
238 0 v
239 327 v
181 0 v
118 0 v
60 327 v
0 0 z
EndSpiro
EndSplineSet
        EndChar
StartChar: O
Encoding: 79 79 0
Width: 373
InSpiro: 1
        Flags: H
        LayerCount: 2
        Back
        SplineSet
34 332 m 0
34 272 29 212 40 154 c 0
45 125 56 96 75 73 c 0
84 61 96 52 109 45 c 0
122 38 137 33 152 34 c 0
166 34 181 38 194 45 c 0
207 52 218 62 228 73 c 0
246 96 257 125 262 154 c 0
273 212 268 272 269 332 c 0
269 391 273 451 262 509 c 0
257 538 246 567 228 590 c 0
218 601 207 611 194 618 c 0
181 625 166 629 152 630 c 0
137 630 122 625 109 618 c 0
96 611 84 602 75 590 c 0
56 567 46 538 40 509 c 0
29 451 34 391 34 332 c 0
Z
151 634 m 0
166 634 181 630 194 622 c 0
207 615 219 605 229 594 c 0
248 571 260 541 266 512 c 0
278 452 273 391 274 331 c 0
273 270 278 209 265 150 c 0
259 121 248 92 229 69 c 0
219 57 207 47 194 40 c 0
181 33 166 29 151 30 c 0
136 30 121 34 107 41 c 0
94 48 83 58 73 69 c 0
54 93 43 122 37 151 c 0
25 210 30 270 30 331 c 0
29 391 25 452 37 511 c 0
43 541 54 570 73 593 c 0
82 605 94 615 107 622 c 0
120 629 135 633 151 634 c 0
Z
Spiro
34 332 o
152 34 c
269 332 o
152 630 c
151 634 c
274 331 o
151 30 c
30 331 o
0 0 z
EndSpiro
EndSplineSet
        Fore
        SplineSet
61 330 m 0
61 277 52 224 58 171 c 0
61 145 68 119 83 97 c 0
91 86 100 77 112 70 c 0
123 63 136 59 150 60 c 0
163 60 176 64 187 70 c 0
198 77 208 87 215 97 c 0
231 119 237 145 240 172 c 0
246 224 237 277 238 330 c 0
238 382 246 435 240 487 c 0
238 514 231 540 215 562 c 0
208 572 198 582 187 589 c 0
176 595 163 599 150 600 c 0
136 600 123 596 112 589 c 0
101 582 91 573 83 562 c 0
68 540 61 514 58 488 c 0
53 435 61 382 61 330 c 0
Z
149 660 m 0
165 660 182 655 197 648 c 0
212 641 226 630 237 618 c 0
260 593 275 562 284 529 c 0
302 464 301 396 301 329 c 0
300 261 302 193 284 129 c 0
275 96 260 65 237 41 c 0
226 29 212 18 197 11 c 0
182 4 165 0 149 0 c 0
132 0 115 4 100 11 c 0
85 19 72 29 61 41 c 0
38 66 24 97 15 129 c 0
-2 194 0 262 -1 329 c 0
-1 396 -2 464 14 529 c 0
23 561 37 592 60 617 c 0
72 630 85 640 100 648 c 0
115 655 132 659 149 660 c 0
Z
Spiro
61 330 o
150 60 c
238 330 o
150 600 c
149 660 c
301 329 o
149 0 c
-1 329 o
0 0 z
EndSpiro
EndSplineSet
        EndChar
StartChar: R
Encoding: 82 82 0
Width: 373
InSpiro: 1
        Flags: H
        LayerCount: 2
        Back
        SplineSet
34 30 m 0
30 30 l 0
30 634 l 0
30 634 l 0
152 634 l 0
171 634 190 633 208 627 c 0
227 620 243 609 254 593 c 0
265 577 270 558 273 539 c 0
275 520 274 501 274 482 c 0
274 462 275 443 272 424 c 0
270 405 265 386 254 370 c 0
243 354 226 343 208 336 c 0
190 330 171 329 152 330 c 0
30 330 l 0
30 334 l 0
152 334 l 0
170 334 189 334 207 340 c 0
224 346 240 358 250 373 c 0
261 389 266 407 268 426 c 0
270 444 269 463 269 482 c 0
269 500 270 519 268 537 c 0
266 556 261 574 250 590 c 0
240 605 224 617 207 623 c 0
189 629 170 630 152 630 c 0
34 630 l 0
34 30 l 0
Z
30 330 m 0
30 334 l 0
154 334 l 0
154 334 l 0
274 30 l 0
269 30 l 0
150 330 l 0
30 330 l 0
Z
Spiro
34 30 v
30 30 v
30 634 v
30 634 v
152 634 ]
274 482 c
152 330 [
30 330 v
30 334 v
152 334 ]
269 482 c
152 630 [
34 630 v
30 330 v
30 334 v
154 334 v
154 334 v
274 30 v
269 30 v
150 330 v
0 0 z
EndSpiro
EndSplineSet
        Fore
        SplineSet
61 0 m 0
-1 0 l 0
-1 660 l 0
-1 660 l 0
150 660 l 0
173 660 196 659 218 652 c 0
240 644 259 631 273 612 c 0
287 594 295 571 298 548 c 0
301 526 301 503 301 480 c 0
301 456 301 433 298 411 c 0
295 388 287 365 273 347 c 0
259 328 240 315 218 307 c 0
196 300 173 299 150 300 c 0
-1 300 l 0
-1 360 l 0
150 360 l 0
164 360 179 360 193 365 c 0
207 370 219 380 227 393 c 0
235 405 238 420 238 435 c 0
239 450 238 465 238 480 c 0
238 494 239 509 238 524 c 0
238 539 234 554 227 566 c 0
219 579 207 589 193 594 c 0
179 599 164 599 150 600 c 0
61 600 l 0
61 0 l 0
Z
-1 300 m 0
-1 360 l 0
181 360 l 0
181 360 l 0
301 0 l 0
238 0 l 0
128 300 l 0
-1 300 l 0
Z
Spiro
61 0 v
-1 0 v
-1 660 v
-1 660 v
150 660 ]
301 480 c
150 300 [
-1 300 v
-1 360 v
150 360 ]
238 480 c
150 600 [
61 600 v
-1 300 v
-1 360 v
181 360 v
181 360 v
301 0 v
238 0 v
128 300 v
0 0 z
EndSpiro
EndSplineSet
        EndChar
StartChar: U
Encoding: 85 85 0
Width: 373
InSpiro: 1
        Flags: H
        LayerCount: 2
        Back
        SplineSet
30 634 m 0
34 634 l 0
34 332 l 0
33 272 30 212 41 154 c 0
46 125 57 96 75 73 c 0
85 62 96 52 109 45 c 0
122 38 137 33 152 34 c 0
166 34 181 38 194 45 c 0
207 52 218 62 227 74 c 0
246 97 256 125 261 155 c 0
272 213 268 272 269 332 c 0
269 634 l 0
274 634 l 0
274 332 l 0
274 271 277 210 265 151 c 0
259 122 248 93 229 70 c 0
220 58 208 48 195 41 c 0
181 34 167 30 152 30 c 0
136 30 122 34 108 41 c 0
95 48 83 58 74 70 c 0
55 93 44 122 38 151 c 0
26 210 30 271 30 332 c 0
30 634 l 0
Z
Spiro
30 634 v
34 634 v
34 332 ]
152 34 c
269 332 [
269 634 v
274 634 v
274 332 ]
152 30 c
30 332 [
0 0 z
EndSpiro
EndSplineSet
        Fore
        SplineSet
-1 660 m 0
61 660 l 0
61 330 l 0
61 277 56 224 61 172 c 0
63 146 70 120 84 98 c 0
92 87 101 77 112 71 c 0
123 64 136 59 150 60 c 0
163 60 175 64 187 71 c 0
198 78 207 87 214 98 c 0
228 120 235 146 237 172 c 0
242 225 237 277 238 330 c 0
238 660 l 0
301 660 l 0
301 330 l 0
301 262 303 194 285 129 c 0
276 97 262 65 238 41 c 0
215 16 183 0 150 0 c 0
116 0 84 16 61 41 c 0
38 65 23 97 14 129 c 0
-3 194 0 262 -1 330 c 0
-1 660 l 0
Z
Spiro
-1 660 v
61 660 v
61 330 ]
150 60 c
238 330 [
238 660 v
301 660 v
301 330 ]
150 0 c
-1 330 [
0 0 z
EndSpiro
EndSplineSet
        EndChar
StartChar: W
Encoding: 87 87 0
Width: 373
InSpiro: 1
        Flags: H
        LayerCount: 2
        Back
        SplineSet
30 634 m 0
34 634 l 0
92 52 l 0
149 634 l 0
154 634 l 0
212 52 l 0
269 634 l 0
274 634 l 0
214 30 l 0
209 30 l 0
152 611 l 0
94 30 l 0
89 30 l 0
30 634 l 0
Z
Spiro
30 634 v
34 634 v
92 52 v
149 634 v
154 634 v
212 52 v
269 634 v
274 634 v
214 30 v
209 30 v
152 611 v
94 30 v
89 30 v
0 0 z
EndSpiro
EndSplineSet
        Fore
        SplineSet
-1 660 m 0
61 660 l 0
90 331 l 0
118 660 l 0
181 660 l 0
210 331 l 0
238 660 l 0
301 660 l 0
241 0 l 0
178 0 l 0
150 328 l 0
121 0 l 0
58 0 l 0
-1 660 l 0
Z
Spiro
-1 660 v
61 660 v
90 331 v
118 660 v
181 660 v
210 331 v
238 660 v
301 660 v
241 0 v
178 0 v
150 328 v
121 0 v
58 0 v
0 0 z
EndSpiro
EndSplineSet
        EndChar
StartChar: X
Encoding: 88 88 0
Width: 373
InSpiro: 1
        Flags: H
        LayerCount: 2
        Back
        SplineSet
30 634 m 0
34 634 l 0
274 30 l 0
269 30 l 0
30 634 l 0
Z
269 634 m 0
274 634 l 0
34 30 l 0
30 30 l 0
269 634 l 0
Z
Spiro
30 634 v
34 634 v
274 30 v
269 30 v
269 634 v
274 634 v
34 30 v
30 30 v
0 0 z
EndSpiro
EndSplineSet
        Fore
        SplineSet
-1 660 m 0
61 660 l 0
301 0 l 0
238 0 l 0
-1 660 l 0
Z
238 660 m 0
301 660 l 0
61 0 l 0
-1 0 l 0
238 660 l 0
Z
Spiro
-1 660 v
61 660 v
301 0 v
238 0 v
238 660 v
301 660 v
61 0 v
-1 0 v
0 0 z
EndSpiro
EndSplineSet
        EndChar
StartChar: Y
Encoding: 89 89 0
Width: 373
InSpiro: 1
        Flags: H
        LayerCount: 2
        Back
        SplineSet
30 634 m 0
34 634 l 0
152 337 l 0
269 634 l 0
274 634 l 0
154 330 l 0
149 330 l 0
30 634 l 0
Z
149 334 m 0
154 334 l 0
154 30 l 0
149 30 l 0
149 334 l 0
Z
Spiro
30 634 v
34 634 v
152 337 v
269 634 v
274 634 v
154 330 v
149 330 v
149 334 v
154 334 v
154 30 v
149 30 v
0 0 z
EndSpiro
EndSplineSet
        Fore
        SplineSet
-1 660 m 0
61 660 l 0
150 410 l 0
238 660 l 0
301 660 l 0
181 300 l 0
118 300 l 0
-1 660 l 0
Z
118 360 m 0
181 360 l 0
181 0 l 0
150 0 l 0
118 0 l 0
118 360 l 0
Z
Spiro
-1 660 v
61 660 v
150 410 v
238 660 v
301 660 v
181 300 v
118 300 v
118 360 v
181 360 v
181 0 v
150 0 c
118 0 v
0 0 z
EndSpiro
EndSplineSet
        EndChar
StartChar: a
Encoding: 97 97 0
Width: 373
InSpiro: 1
        Flags: H
        LayerCount: 2
        Back
        SplineSet
269 394 m 0
274 394 l 0
274 30 l 0
269 30 l 0
269 394 l 0
Z
274 290 m 0
269 290 l 0
268 318 254 347 232 365 c 0
210 384 180 393 152 390 c 0
132 387 114 379 98 368 c 0
82 356 70 341 60 324 c 0
40 290 34 250 34 212 c 0
33 172 40 132 59 98 c 0
69 81 82 66 98 55 c 0
114 43 132 35 152 33 c 0
180 29 210 38 232 57 c 0
254 76 268 104 269 134 c 0
274 134 l 0
272 103 258 74 235 54 c 0
212 35 180 25 151 30 c 0
131 32 112 40 96 52 c 0
80 64 67 79 57 96 c 0
37 130 30 171 30 211 c 0
29 250 36 291 57 325 c 0
67 343 80 358 96 370 c 0
112 382 131 390 151 393 c 0
180 396 212 387 235 368 c 0
258 349 272 320 274 290 c 0
Z
Spiro
269 394 v
274 394 v
274 30 v
269 30 v
274 290 v
269 290 v
152 390 c
34 212 c
152 33 c
269 134 v
274 134 v
151 30 c
30 211 c
151 393 c
0 0 z
EndSpiro
EndSplineSet
        Fore
        SplineSet
238 420 m 0
301 420 l 0
301 0 l 0
238 0 l 0
238 420 l 0
Z
301 260 m 0
238 260 l 0
245 284 239 313 222 332 c 0
205 352 178 363 153 360 c 0
137 358 121 351 109 341 c 0
96 331 86 317 79 303 c 0
64 275 61 242 61 210 c 0
60 177 64 144 79 115 c 0
86 101 96 88 109 78 c 0
121 67 136 60 153 59 c 0
178 55 206 66 222 86 c 0
239 106 245 135 238 160 c 0
301 160 l 0
308 117 294 71 264 40 c 0
234 9 188 -6 146 0 c 0
122 3 100 12 81 25 c 0
62 39 46 56 34 76 c 0
9 115 0 162 -1 209 c 0
-1 255 8 303 33 342 c 0
46 362 62 379 81 393 c 0
100 406 122 415 146 419 c 0
188 425 233 409 263 378 c 0
293 347 308 302 301 260 c 0
Z
Spiro
238 420 v
301 420 v
301 0 v
238 0 v
301 260 v
238 260 v
153 360 c
61 210 c
153 59 c
238 160 v
301 160 v
146 0 c
-1 209 c
146 419 c
0 0 z
EndSpiro
EndSplineSet
        EndChar
StartChar: b
Encoding: 98 98 0
Width: 373
InSpiro: 1
        Flags: H
        LayerCount: 2
        Back
        SplineSet
30 634 m 0
34 634 l 0
34 30 l 0
30 30 l 0
30 634 l 0
Z
34 330 m 0
30 330 l 0
30 360 44 389 67 408 c 0
90 428 122 437 152 433 c 0
173 429 193 420 209 406 c 0
226 393 239 375 249 356 c 0
268 318 273 274 274 232 c 0
274 188 269 144 249 106 c 0
239 87 226 69 210 56 c 0
193 42 173 33 152 30 c 0
122 25 90 34 67 54 c 0
44 74 30 103 30 134 c 0
34 134 l 0
34 104 47 75 69 56 c 0
91 37 122 28 151 33 c 0
171 35 191 45 207 58 c 0
224 72 236 89 246 108 c 0
264 146 269 189 269 232 c 0
268 273 264 317 245 354 c 0
236 373 223 390 207 404 c 0
191 417 171 427 151 430 c 0
122 434 91 425 69 406 c 0
47 387 34 359 34 330 c 0
Z
Spiro
30 634 v
34 634 v
34 30 v
30 30 v
34 330 v
30 330 v
152 433 c
274 232 c
152 30 c
30 134 v
34 134 v
151 33 c
269 232 c
151 430 c
0 0 z
EndSpiro
EndSplineSet
        Fore
        SplineSet
-1 660 m 0
61 660 l 0
61 0 l 0
-1 0 l 0
-1 660 l 0
Z
61 300 m 0
-1 300 l 0
-9 342 4 388 35 419 c 0
65 450 111 465 154 459 c 0
178 455 201 444 220 429 c 0
240 414 256 394 268 372 c 0
292 329 300 279 301 230 c 0
301 180 292 129 268 86 c 0
256 64 240 45 221 29 c 0
201 14 178 3 154 0 c 0
111 -7 64 8 34 39 c 0
4 70 -9 117 -1 160 c 0
61 160 l 0
57 147 56 134 58 121 c 0
61 108 67 96 75 86 c 0
83 76 94 68 106 63 c 0
118 59 132 57 145 59 c 0
162 61 179 69 192 81 c 0
205 93 215 108 222 124 c 0
236 157 238 194 238 230 c 0
237 265 236 301 222 334 c 0
215 350 205 365 192 377 c 0
179 389 162 397 145 400 c 0
119 403 92 392 75 372 c 0
59 353 53 324 61 300 c 0
Z
Spiro
-1 660 v
61 660 v
61 0 v
-1 0 v
61 300 v
-1 300 v
154 459 c
301 230 c
154 0 c
-1 160 v
61 160 v
145 59 c
238 230 c
145 400 c
0 0 z
EndSpiro
EndSplineSet
        EndChar
StartChar: c
Encoding: 99 99 0
Width: 373
InSpiro: 1
        Flags: H
        LayerCount: 2
        Back
        SplineSet
274 332 m 0
269 332 l 0
268 360 254 388 232 407 c 0
210 425 180 434 152 430 c 0
131 427 111 417 95 404 c 0
79 390 66 373 57 354 c 0
38 317 34 273 34 232 c 0
33 189 38 146 56 108 c 0
66 89 78 72 95 58 c 0
111 45 131 35 152 33 c 0
180 28 210 37 232 56 c 0
254 74 268 103 269 132 c 0
274 132 l 0
272 101 258 72 235 53 c 0
212 34 180 25 151 30 c 0
129 33 109 42 93 56 c 0
76 70 63 87 54 106 c 0
34 145 29 189 30 232 c 0
30 274 35 318 54 356 c 0
63 375 77 393 93 406 c 0
109 420 129 429 151 433 c 0
180 437 211 428 235 409 c 0
258 390 272 361 274 332 c 0
Z
Spiro
274 332 v
269 332 v
152 430 c
34 232 c
152 33 c
269 132 v
274 132 v
151 30 c
30 232 c
151 433 c
0 0 z
EndSpiro
EndSplineSet
        Fore
        SplineSet
301 330 m 0
238 330 l 0
236 350 226 369 211 382 c 0
195 395 175 401 155 400 c 0
137 398 120 390 106 378 c 0
93 366 83 351 76 335 c 0
62 302 61 265 61 230 c 0
60 194 62 157 76 124 c 0
83 107 93 92 106 80 c 0
120 68 137 60 155 59 c 0
175 57 196 63 211 76 c 0
226 90 236 109 238 130 c 0
301 130 l 0
300 91 282 53 252 28 c 0
222 4 182 -6 144 0 c 0
119 4 96 15 77 30 c 0
57 45 42 65 30 86 c 0
6 130 -1 180 -1 230 c 0
0 279 7 329 30 372 c 0
42 393 58 413 77 428 c 0
96 443 119 454 144 459 c 0
181 465 222 454 251 430 c 0
281 405 300 368 301 330 c 0
Z
Spiro
301 330 v
238 330 v
155 400 c
61 230 c
155 59 c
238 130 v
301 130 v
144 0 c
-1 230 c
144 459 c
0 0 z
EndSpiro
EndSplineSet
        EndChar
StartChar: e
Encoding: 101 101 0
Width: 373
InSpiro: 1
        Flags: H
        LayerCount: 2
        Back
        SplineSet
30 230 m 0
30 234 l 0
269 234 l 0
277 265 277 299 269 331 c 0
261 357 247 382 227 401 c 0
207 419 179 431 152 430 c 0
130 428 110 420 93 407 c 0
76 394 63 376 54 357 c 0
35 318 33 274 34 232 c 0
34 189 39 147 57 109 c 0
67 90 79 72 95 59 c 0
111 45 131 36 152 33 c 0
180 28 210 37 232 55 c 0
255 74 268 103 269 132 c 0
274 132 l 0
273 101 258 72 235 53 c 0
212 33 180 25 151 30 c 0
130 33 110 43 93 56 c 0
77 70 64 87 55 107 c 0
36 145 31 188 30 231 c 0
28 274 32 319 51 358 c 0
60 378 74 396 91 409 c 0
108 422 129 431 151 433 c 0
179 434 208 423 229 404 c 0
251 385 266 359 274 332 c 0
283 298 283 263 274 230 c 0
274 230 l 0
30 230 l 0
Z
Spiro
30 230 v
30 234 v
269 234 v
269 331 c
152 430 c
34 232 c
152 33 c
269 132 v
274 132 v
151 30 c
30 231 c
151 433 c
274 332 c
274 230 v
274 230 v
0 0 z
EndSpiro
EndSplineSet
        Fore
        SplineSet
22 200 m 0
22 260 l 0
238 260 l 0
243 279 243 300 239 321 c 0
234 341 224 362 209 376 c 0
193 391 172 400 151 400 c 0
133 399 115 391 102 379 c 0
89 367 79 352 72 335 c 0
59 302 60 265 61 230 c 0
61 194 63 157 77 124 c 0
83 108 93 92 107 81 c 0
120 69 137 60 155 59 c 0
175 56 196 63 211 76 c 0
227 89 236 109 238 130 c 0
301 130 l 0
300 91 282 53 252 28 c 0
222 3 182 -6 144 0 c 0
119 4 97 15 78 30 c 0
58 46 43 65 31 87 c 0
8 130 0 180 -1 229 c 0
-2 279 4 331 28 376 c 0
40 398 57 418 77 433 c 0
98 447 122 457 148 459 c 0
182 461 217 447 244 424 c 0
270 402 289 371 300 338 c 0
314 293 314 244 301 200 c 0
301 200 l 0
22 200 l 0
Z
Spiro
22 200 v
22 260 v
238 260 v
239 321 c
151 400 c
61 230 c
155 59 c
238 130 v
301 130 v
144 0 c
-1 229 c
148 459 c
300 338 c
301 200 v
301 200 v
0 0 z
EndSpiro
EndSplineSet
        EndChar
StartChar: f
Encoding: 102 102 0
Width: 373
InSpiro: 1
        Flags: H
        LayerCount: 2
        Back
        SplineSet
274 634 m 0
274 630 l 0
248 651 213 662 180 660 c 0
146 658 114 643 90 619 c 0
65 596 50 565 42 532 c 0
34 499 33 465 34 432 c 0
34 30 l 0
30 30 l 0
30 432 l 0
30 466 30 500 38 534 c 0
46 567 62 599 86 622 c 0
111 646 144 662 178 664 c 0
212 666 247 655 274 634 c 0
Z
30 430 m 0
30 434 l 0
274 434 l 0
274 430 l 0
30 430 l 0
Z
Spiro
274 634 v
274 630 v
34 432 [
34 30 v
30 30 v
30 432 ]
30 430 v
30 434 v
274 434 v
274 430 v
0 0 z
EndSpiro
EndSplineSet
        Fore
        SplineSet
301 660 m 0
301 600 l 0
279 626 247 642 214 645 c 0
180 647 146 635 121 614 c 0
95 592 78 562 70 529 c 0
61 497 60 463 61 430 c 0
61 0 l 0
-1 0 l 0
-1 430 l 0
-1 472 0 514 9 555 c 0
20 596 40 635 72 663 c 0
103 691 145 708 187 708 c 0
229 707 271 690 301 660 c 0
Z
-1 400 m 0
-1 460 l 0
301 460 l 0
301 400 l 0
-1 400 l 0
Z
Spiro
301 660 v
301 600 v
61 430 [
61 0 v
-1 0 v
-1 430 ]
-1 400 v
-1 460 v
301 460 v
301 400 v
0 0 z
EndSpiro
EndSplineSet
        EndChar
StartChar: g
Encoding: 103 103 0
Width: 373
InSpiro: 1
        Flags: H
        LayerCount: 2
        Back
        SplineSet
269 434 m 0
274 434 l 0
274 32 l 0
274 -26 275 -86 261 -143 c 0
254 -171 243 -199 224 -222 c 0
206 -245 180 -263 152 -269 c 0
122 -274 89 -266 66 -246 c 0
43 -226 29 -196 30 -166 c 0
34 -166 l 0
33 -195 46 -224 68 -243 c 0
90 -263 122 -271 151 -266 c 0
179 -260 204 -242 222 -220 c 0
240 -197 251 -169 257 -141 c 0
271 -85 268 -26 269 31 c 0
269 434 l 0
Z
274 330 m 0
269 330 l 0
268 359 255 387 233 406 c 0
211 425 180 434 152 430 c 0
131 427 111 417 95 404 c 0
79 390 66 373 57 354 c 0
38 317 34 273 34 232 c 0
33 189 38 146 56 108 c 0
66 89 78 72 95 58 c 0
111 45 131 35 152 33 c 0
180 28 211 37 233 56 c 0
255 75 268 104 269 134 c 0
274 134 l 0
273 103 259 73 236 54 c 0
212 34 181 25 151 30 c 0
129 33 109 42 93 56 c 0
76 70 63 87 54 106 c 0
34 145 29 189 30 232 c 0
30 274 35 318 54 356 c 0
63 375 77 393 93 406 c 0
109 420 129 429 151 433 c 0
180 437 212 428 235 409 c 0
258 389 273 360 274 330 c 0
Z
Spiro
269 434 v
274 434 v
274 32 ]
152 -269 c
30 -166 v
34 -166 v
151 -266 c
269 31 [
274 330 v
269 330 v
152 430 c
34 232 c
152 33 c
269 134 v
274 134 v
151 30 c
30 232 c
151 433 c
0 0 z
EndSpiro
EndSplineSet
        Fore
        SplineSet
238 460 m 0
301 460 l 0
301 30 l 0
301 -35 301 -101 282 -163 c 0
272 -194 258 -224 236 -248 c 0
215 -273 186 -292 155 -299 c 0
133 -303 110 -302 89 -296 c 0
68 -290 48 -278 33 -262 c 0
17 -246 6 -227 0 -205 c 0
-5 -184 -6 -161 -1 -140 c 0
61 -140 l 0
56 -152 55 -165 57 -178 c 0
60 -191 65 -203 74 -213 c 0
82 -223 93 -231 105 -235 c 0
117 -240 131 -241 144 -240 c 0
156 -238 168 -232 179 -225 c 0
190 -218 199 -208 206 -197 c 0
221 -176 228 -151 232 -125 c 0
241 -74 237 -22 238 29 c 0
238 460 l 0
Z
301 300 m 0
238 300 l 0
245 324 239 353 223 372 c 0
206 392 179 403 154 400 c 0
136 397 119 389 106 377 c 0
93 365 83 350 76 334 c 0
62 301 61 265 61 230 c 0
60 194 62 157 76 125 c 0
83 108 93 93 106 81 c 0
119 69 136 61 154 59 c 0
166 57 180 59 192 63 c 0
204 68 215 76 223 86 c 0
231 96 237 108 240 121 c 0
242 134 241 147 238 160 c 0
301 160 l 0
309 117 295 70 264 39 c 0
234 7 188 -7 145 0 c 0
120 4 97 15 78 30 c 0
58 45 42 65 30 86 c 0
6 130 -1 180 -1 230 c 0
0 279 7 329 31 372 c 0
43 394 58 413 78 428 c 0
97 444 120 454 145 459 c 0
187 466 234 451 264 420 c 0
295 389 309 342 301 300 c 0
Z
Spiro
238 460 v
301 460 v
301 30 ]
155 -299 c
-1 -140 v
61 -140 v
144 -240 c
238 29 [
301 300 v
238 300 v
154 400 c
61 230 c
154 59 c
238 160 v
301 160 v
145 0 c
-1 230 c
145 459 c
0 0 z
EndSpiro
EndSplineSet
        EndChar
StartChar: h
Encoding: 104 104 0
Width: 373
InSpiro: 1
        Flags: H
        LayerCount: 2
        Back
        SplineSet
34 30 m 0
30 30 l 0
30 634 l 0
34 634 l 0
34 30 l 0
Z
34 290 m 0
30 290 l 0
33 319 48 346 70 365 c 0
92 384 122 394 152 393 c 0
172 391 192 385 209 374 c 0
226 363 240 348 251 330 c 0
261 312 267 293 270 272 c 0
273 252 274 232 274 212 c 0
274 30 l 0
269 30 l 0
269 212 l 0
268 231 268 251 265 271 c 0
262 291 256 310 247 327 c 0
237 345 223 360 206 371 c 0
190 382 170 388 151 390 c 0
122 391 93 381 72 363 c 0
50 345 36 318 34 290 c 0
Z
Spiro
34 30 v
30 30 v
30 634 v
34 634 v
34 290 v
30 290 v
152 393 c
274 212 [
274 30 v
269 30 v
269 212 ]
151 390 c
0 0 z
EndSpiro
EndSplineSet
        Fore
        SplineSet
61 0 m 0
-1 0 l 0
-1 660 l 0
61 660 l 0
61 0 l 0
Z
61 260 m 0
-1 260 l 0
-3 301 11 343 39 373 c 0
68 403 109 420 151 419 c 0
175 418 199 411 220 399 c 0
241 387 258 370 271 349 c 0
284 329 292 306 296 282 c 0
300 258 301 234 301 210 c 0
301 0 l 0
238 0 l 0
238 210 l 0
238 242 236 275 222 304 c 0
215 319 205 332 192 342 c 0
179 351 164 358 148 360 c 0
122 362 95 351 78 332 c 0
61 312 54 285 61 260 c 0
Z
Spiro
61 0 v
-1 0 v
-1 660 v
61 660 v
61 260 v
-1 260 v
151 419 c
301 210 [
301 0 v
238 0 v
238 210 ]
148 360 c
0 0 z
EndSpiro
EndSplineSet
        EndChar
StartChar: i
Encoding: 105 105 0
Width: 373
InSpiro: 1
        Flags: H
        LayerCount: 2
        Back
        SplineSet
149 434 m 0
154 434 l 0
154 30 l 0
149 30 l 0
149 434 l 0
Z
152 525 m 0
153 525 155 525 156 527 c 0
158 528 158 530 159 532 c 0
159 533 158 535 156 536 c 0
155 538 153 539 152 539 c 0
150 538 148 538 147 536 c 0
145 535 145 533 145 532 c 0
144 530 145 528 147 527 c 0
148 525 150 524 152 525 c 0
Z
30 30 m 0
30 34 l 0
274 34 l 0
274 30 l 0
30 30 l 0
Z
30 430 m 0
30 434 l 0
154 434 l 0
154 430 l 0
30 430 l 0
Z
Spiro
149 434 v
154 434 v
154 30 v
149 30 v
152 525 c
159 532 c
152 539 c
145 532 c
30 30 v
30 34 v
274 34 v
274 30 v
30 430 v
30 434 v
154 434 v
154 430 v
0 0 z
EndSpiro
EndSplineSet
        Fore
        SplineSet
118 460 m 0
181 460 l 0
181 0 l 0
150 0 l 0
118 0 l 0
118 460 l 0
Z
150 495 m 0
159 495 168 498 174 505 c 0
181 511 184 520 185 530 c 0
185 539 181 548 174 554 c 0
168 561 159 565 150 565 c 0
140 564 131 561 125 554 c 0
118 548 115 539 115 530 c 0
114 520 118 511 125 505 c 0
131 498 140 494 150 495 c 0
Z
-1 0 m 0
-1 60 l 0
301 60 l 0
301 0 l 0
-1 0 l 0
Z
-1 400 m 0
-1 460 l 0
181 460 l 0
181 400 l 0
-1 400 l 0
Z
Spiro
118 460 v
181 460 v
181 0 v
150 0 c
118 0 v
150 495 c
185 530 c
150 565 c
115 530 c
-1 0 v
-1 60 v
301 60 v
301 0 v
-1 400 v
-1 460 v
181 460 v
181 400 v
0 0 z
EndSpiro
EndSplineSet
        EndChar
StartChar: j
Encoding: 106 106 0
Width: 373
InSpiro: 1
        Flags: H
        LayerCount: 2
        Back
        SplineSet
269 434 m 0
274 434 l 0
274 32 l 0
274 -23 276 -79 267 -133 c 0
262 -161 254 -188 241 -212 c 0
227 -236 207 -257 182 -269 c 0
165 -276 146 -279 128 -278 c 0
110 -276 92 -270 77 -260 c 0
62 -249 49 -235 41 -219 c 0
33 -202 29 -184 30 -166 c 0
34 -166 l 0
33 -183 36 -201 44 -217 c 0
52 -233 64 -247 79 -257 c 0
94 -267 111 -273 129 -275 c 0
146 -276 164 -273 181 -266 c 0
205 -254 225 -233 238 -209 c 0
251 -186 259 -159 263 -132 c 0
271 -78 268 -23 269 31 c 0
269 434 l 0
Z
272 525 m 0
273 525 275 525 276 527 c 0
278 528 278 530 279 532 c 0
279 533 278 535 276 536 c 0
275 538 273 539 272 539 c 0
270 538 268 538 267 536 c 0
265 535 265 533 265 532 c 0
264 530 265 528 267 527 c 0
268 525 270 524 272 525 c 0
Z
Spiro
269 434 v
274 434 v
274 32 ]
182 -269 c
30 -166 v
34 -166 v
181 -266 c
269 31 [
272 525 c
279 532 c
272 539 c
265 532 c
0 0 z
EndSpiro
EndSplineSet
        Fore
        SplineSet
238 460 m 0
301 460 l 0
301 30 l 0
301 -30 302 -91 289 -150 c 0
283 -180 273 -209 257 -235 c 0
242 -260 220 -283 193 -297 c 0
169 -308 142 -313 116 -310 c 0
90 -308 65 -297 45 -281 c 0
24 -264 9 -242 1 -217 c 0
-6 -192 -7 -165 -1 -140 c 0
61 -140 l 0
55 -154 54 -170 58 -185 c 0
61 -200 69 -214 80 -224 c 0
91 -235 105 -242 120 -246 c 0
135 -249 151 -247 166 -242 c 0
189 -232 206 -213 218 -191 c 0
229 -169 234 -144 236 -119 c 0
241 -70 237 -20 238 29 c 0
238 460 l 0
Z
270 495 m 0
279 495 288 498 294 505 c 0
301 511 304 520 305 530 c 0
305 539 301 548 294 554 c 0
288 561 279 565 270 565 c 0
260 564 251 561 245 554 c 0
238 548 235 539 235 530 c 0
234 520 238 511 245 505 c 0
251 498 260 494 270 495 c 0
Z
Spiro
238 460 v
301 460 v
301 30 ]
193 -297 c
-1 -140 v
61 -140 v
166 -242 c
238 29 [
270 495 c
305 530 c
270 565 c
235 530 c
0 0 z
EndSpiro
EndSplineSet
        EndChar
StartChar: l
Encoding: 108 108 0
Width: 373
InSpiro: 1
        Flags: H
        LayerCount: 2
        Back
        SplineSet
30 634 m 0
34 634 l 0
34 232 l 0
33 198 34 164 42 131 c 0
50 98 65 67 90 44 c 0
114 20 146 5 180 3 c 0
213 1 248 12 274 34 c 0
274 30 l 0
247 8 212 -2 178 0 c 0
144 1 111 17 86 41 c 0
62 64 46 96 38 129 c 0
30 163 29 197 30 232 c 0
30 634 l 0
Z
Spiro
30 634 v
34 634 v
34 232 ]
274 34 v
274 30 v
30 232 [
0 0 z
EndSpiro
EndSplineSet
        Fore
        SplineSet
-1 660 m 0
61 660 l 0
61 230 l 0
60 196 61 162 70 130 c 0
78 97 95 67 121 45 c 0
147 24 180 12 214 14 c 0
247 17 279 33 301 60 c 0
301 0 l 0
271 -30 229 -47 187 -48 c 0
145 -48 103 -31 72 -3 c 0
40 24 20 63 9 104 c 0
0 145 -1 187 -1 230 c 0
-1 660 l 0
Z
Spiro
-1 660 v
61 660 v
61 230 ]
301 60 v
301 0 v
-1 230 [
0 0 z
EndSpiro
EndSplineSet
        EndChar
StartChar: m
Encoding: 109 109 0
Width: 373
InSpiro: 1
        Flags: H
        LayerCount: 2
        Back
        SplineSet
30 434 m 0
34 434 l 0
34 30 l 0
30 30 l 0
30 434 l 0
Z
34 30 m 0
30 30 l 0
30 334 l 0
30 330 l 0
18 340 11 356 10 371 c 0
9 387 14 403 23 415 c 0
33 428 47 437 62 440 c 0
77 443 94 440 108 433 c 0
123 424 135 408 142 392 c 0
149 375 152 357 153 339 c 0
156 304 153 267 154 232 c 0
154 30 l 0
149 30 l 0
149 232 l 0
149 267 151 302 149 338 c 0
148 355 145 373 138 390 c 0
131 406 120 421 105 430 c 0
91 437 76 439 61 435 c 0
47 432 34 423 25 411 c 0
17 399 13 384 14 369 c 0
16 355 23 341 34 331 c 0
34 30 l 0
Z
154 30 m 0
149 30 l 0
149 282 l 0
149 314 147 347 157 378 c 0
162 393 170 408 182 418 c 0
188 424 195 428 203 431 c 0
210 433 219 434 227 433 c 0
236 431 244 426 251 420 c 0
258 414 264 406 267 398 c 0
275 381 277 362 277 343 c 0
278 306 273 269 274 232 c 0
274 30 l 0
269 30 l 0
269 232 l 0
269 268 273 305 274 341 c 0
274 360 273 378 266 395 c 0
262 404 257 411 250 418 c 0
243 424 235 428 226 430 c 0
218 431 210 430 203 427 c 0
195 424 189 420 183 415 c 0
172 404 165 389 160 374 c 0
152 344 154 313 154 282 c 0
154 30 l 0
Z
Spiro
30 434 v
34 434 v
34 30 v
30 30 v
34 30 v
30 30 v
30 334 v
30 330 v
108 433 c
154 232 [
154 30 v
149 30 v
149 232 ]
105 430 c
34 331 v
154 30 v
149 30 v
149 282 ]
227 433 c
274 232 [
274 30 v
269 30 v
269 232 ]
226 430 c
154 282 [
0 0 z
EndSpiro
EndSplineSet
        Fore
        SplineSet
-1 460 m 0
61 460 l 0
61 0 l 0
-1 0 l 0
-1 460 l 0
Z
61 0 m 0
-1 0 l 0
-1 360 l 0
-1 300 l 0
-19 316 -32 340 -34 365 c 0
-37 389 -29 415 -14 435 c 0
0 455 23 468 48 472 c 0
73 476 99 470 120 456 c 0
136 444 149 427 158 409 c 0
167 391 172 371 175 351 c 0
182 311 180 270 181 230 c 0
181 0 l 0
118 0 l 0
118 230 l 0
118 260 121 291 121 322 c 0
122 337 121 353 116 367 c 0
114 375 111 382 106 388 c 0
101 394 95 399 89 403 c 0
77 408 64 409 52 404 c 0
40 399 31 389 27 377 c 0
23 365 24 351 31 341 c 0
37 330 48 322 61 320 c 0
61 0 l 0
Z
181 0 m 0
118 0 l 0
118 280 l 0
118 320 117 362 134 399 c 0
142 418 155 435 171 446 c 0
188 458 210 463 230 459 c 0
240 456 250 451 258 444 c 0
266 437 273 429 279 420 c 0
290 401 295 380 298 359 c 0
303 316 300 273 301 230 c 0
301 0 l 0
238 0 l 0
238 230 l 0
238 245 238 261 240 277 c 0
243 292 247 308 250 323 c 0
253 339 256 355 252 370 c 0
249 378 246 385 240 390 c 0
234 396 226 399 219 400 c 0
213 400 207 398 202 395 c 0
197 391 193 387 190 382 c 0
184 372 181 361 180 349 c 0
178 326 181 303 181 280 c 0
181 0 l 0
Z
Spiro
-1 460 v
61 460 v
61 0 v
-1 0 v
61 0 v
-1 0 v
-1 360 v
-1 300 v
120 456 c
181 230 [
181 0 v
118 0 v
118 230 ]
89 403 c
61 320 v
181 0 v
118 0 v
118 280 ]
230 459 c
301 230 [
301 0 v
238 0 v
238 230 ]
219 400 c
181 280 [
0 0 z
EndSpiro
EndSplineSet
        EndChar
StartChar: o
Encoding: 111 111 0
Width: 373
InSpiro: 1
        Flags: H
        LayerCount: 2
        Back
        SplineSet
152 390 m 0
132 390 112 383 96 371 c 0
79 360 66 344 57 327 c 0
38 291 33 250 34 211 c 0
34 171 38 130 57 95 c 0
66 78 79 62 96 51 c 0
112 39 132 32 152 33 c 0
171 33 191 40 207 51 c 0
223 62 236 78 245 95 c 0
264 130 268 171 269 211 c 0
269 250 264 291 246 326 c 0
236 344 223 359 207 371 c 0
191 382 171 389 152 390 c 0
Z
274 212 m 0
274 171 269 129 249 93 c 0
239 75 225 59 208 48 c 0
191 36 171 29 151 30 c 0
130 30 110 37 94 48 c 0
77 60 64 76 54 94 c 0
34 129 29 171 30 212 c 0
30 252 35 293 54 329 c 0
64 346 77 362 94 374 c 0
110 385 130 392 151 393 c 0
171 393 191 386 208 374 c 0
225 363 238 347 248 330 c 0
268 294 273 252 274 212 c 0
Z
Spiro
152 390 c
34 211 c
152 33 c
269 211 c
274 212 c
151 30 c
30 212 c
151 393 c
0 0 z
EndSpiro
EndSplineSet
        Fore
        SplineSet
150 360 m 0
133 360 117 353 104 343 c 0
91 333 82 320 75 305 c 0
62 275 60 241 61 209 c 0
61 176 62 143 75 113 c 0
82 98 92 85 104 75 c 0
117 65 133 58 150 59 c 0
166 59 182 65 194 75 c 0
207 85 216 99 223 113 c 0
236 143 237 176 238 209 c 0
238 241 237 275 223 304 c 0
217 319 207 333 194 343 c 0
182 353 166 359 150 360 c 0
Z
301 210 m 0
301 161 292 112 267 71 c 0
254 51 237 33 217 20 c 0
196 7 173 0 149 0 c 0
125 0 101 7 81 20 c 0
61 33 44 51 32 72 c 0
7 112 -1 162 -1 210 c 0
0 257 7 306 32 347 c 0
44 367 61 385 81 398 c 0
101 411 125 418 149 419 c 0
172 419 196 411 217 398 c 0
237 386 254 368 267 347 c 0
292 307 300 257 301 210 c 0
Z
Spiro
150 360 c
61 209 c
150 59 c
238 209 c
301 210 c
149 0 c
-1 210 c
149 419 c
0 0 z
EndSpiro
EndSplineSet
        EndChar
StartChar: q
Encoding: 113 113 0
Width: 373
InSpiro: 1
        Flags: H
        LayerCount: 2
        Back
        SplineSet
269 434 m 0
274 434 l 0
274 -270 l 0
269 -270 l 0
269 434 l 0
Z
274 330 m 0
269 330 l 0
268 359 255 387 233 406 c 0
211 425 180 434 152 430 c 0
131 427 111 417 95 404 c 0
79 390 66 373 57 354 c 0
38 317 34 273 34 232 c 0
33 189 38 146 56 108 c 0
66 89 78 72 95 58 c 0
111 45 131 35 152 33 c 0
180 28 211 37 233 56 c 0
255 75 268 104 269 134 c 0
274 134 l 0
273 103 259 73 236 54 c 0
212 34 181 25 151 30 c 0
129 33 109 42 93 56 c 0
76 70 63 87 54 106 c 0
34 145 29 189 30 232 c 0
30 274 35 318 54 356 c 0
63 375 77 393 93 406 c 0
109 420 129 429 151 433 c 0
180 437 212 428 235 409 c 0
258 389 273 360 274 330 c 0
Z
Spiro
269 434 v
274 434 v
274 -270 v
269 -270 v
274 330 v
269 330 v
152 430 c
34 232 c
152 33 c
269 134 v
274 134 v
151 30 c
30 232 c
151 433 c
0 0 z
EndSpiro
EndSplineSet
        Fore
        SplineSet
238 460 m 0
301 460 l 0
301 -300 l 0
238 -300 l 0
238 460 l 0
Z
301 300 m 0
238 300 l 0
245 324 239 353 223 372 c 0
206 392 179 403 154 400 c 0
136 397 119 389 106 377 c 0
93 365 83 350 76 334 c 0
62 301 61 265 61 230 c 0
60 194 62 157 76 125 c 0
83 108 93 93 106 81 c 0
119 69 136 61 154 59 c 0
166 57 180 59 192 63 c 0
204 68 215 76 223 86 c 0
231 96 237 108 240 121 c 0
242 134 241 147 238 160 c 0
301 160 l 0
309 117 295 70 264 39 c 0
234 7 188 -7 145 0 c 0
120 4 97 15 78 30 c 0
58 45 42 65 30 86 c 0
6 130 -1 180 -1 230 c 0
0 279 7 329 31 372 c 0
43 394 58 413 78 428 c 0
97 444 120 454 145 459 c 0
187 466 234 451 264 420 c 0
295 389 309 342 301 300 c 0
Z
Spiro
238 460 v
301 460 v
301 -300 v
238 -300 v
301 300 v
238 300 v
154 400 c
61 230 c
154 59 c
238 160 v
301 160 v
145 0 c
-1 230 c
145 459 c
0 0 z
EndSpiro
EndSplineSet
        EndChar
StartChar: r
Encoding: 114 114 0
Width: 373
InSpiro: 1
        Flags: H
        LayerCount: 2
        Back
        SplineSet
34 30 m 0
30 30 l 0
30 434 l 0
34 434 l 0
34 30 l 0
Z
34 380 m 0
30 380 l 0
46 403 70 422 97 431 c 0
124 441 154 441 182 433 c 0
205 425 226 412 242 394 c 0
258 376 269 353 274 330 c 0
269 330 l 0
264 352 254 374 238 392 c 0
223 409 203 422 181 430 c 0
154 438 125 438 99 429 c 0
72 420 49 402 34 380 c 0
Z
Spiro
34 30 v
30 30 v
30 434 v
34 434 v
34 380 v
30 380 v
182 433 c
274 330 v
269 330 v
181 430 c
0 0 z
EndSpiro
EndSplineSet
        Fore
        SplineSet
61 0 m 0
-1 0 l 0
-1 460 l 0
61 460 l 0
61 0 l 0
Z
61 350 m 0
-1 350 l 0
9 389 36 423 71 443 c 0
106 463 149 468 189 458 c 0
222 448 252 427 272 398 c 0
293 370 303 334 301 300 c 0
238 300 l 0
240 321 235 344 222 363 c 0
210 381 191 395 170 401 c 0
148 406 125 404 106 395 c 0
86 386 70 369 61 350 c 0
Z
Spiro
61 0 v
-1 0 v
-1 460 v
61 460 v
61 350 v
-1 350 v
189 458 c
301 300 v
238 300 v
170 401 c
0 0 z
EndSpiro
EndSplineSet
        EndChar
StartChar: s
Encoding: 115 115 0
Width: 373
InSpiro: 1
        Flags: H
        LayerCount: 2
        Back
        SplineSet
274 292 m 0
269 292 l 0
259 324 238 353 209 371 c 0
180 389 145 396 112 390 c 0
90 386 69 376 54 361 c 0
47 353 41 344 37 333 c 0
33 323 32 312 34 302 c 0
35 289 41 276 49 266 c 0
58 256 68 248 79 241 c 0
101 228 127 220 152 213 c 0
177 205 203 197 226 183 c 0
238 176 248 168 257 157 c 0
265 147 271 135 274 122 c 0
275 110 274 99 270 88 c 0
266 77 260 67 252 59 c 0
236 43 214 33 192 30 c 0
157 24 121 31 91 49 c 0
61 68 39 98 30 132 c 0
34 132 l 0
42 99 64 69 93 51 c 0
121 33 157 26 191 33 c 0
212 36 233 46 248 61 c 0
255 69 261 78 265 89 c 0
269 99 270 110 269 121 c 0
267 133 261 146 253 156 c 0
244 166 234 174 223 181 c 0
201 194 175 202 151 210 c 0
125 217 99 225 76 239 c 0
65 246 54 254 46 265 c 0
38 275 31 287 30 301 c 0
28 312 29 323 33 334 c 0
37 345 43 354 51 362 c 0
67 379 88 388 111 393 c 0
145 399 182 392 211 373 c 0
241 355 264 325 274 292 c 0
Z
Spiro
274 292 v
269 292 v
112 390 c
34 302 c
152 213 a
232 188 h
274 122 c
192 30 c
30 132 v
34 132 v
191 33 c
269 121 c
151 210 a
71 235 h
30 301 c
111 393 c
0 0 z
EndSpiro
EndSplineSet
        Fore
        SplineSet
301 290 m 0
238 290 l 0
228 313 211 334 189 346 c 0
167 359 141 364 116 360 c 0
101 357 87 352 77 342 c 0
71 337 67 331 64 325 c 0
61 318 60 311 61 304 c 0
62 293 67 284 74 276 c 0
81 268 90 263 100 258 c 0
118 249 139 244 159 238 c 0
189 228 220 218 247 200 c 0
260 191 272 180 282 167 c 0
291 154 298 139 301 124 c 0
303 109 301 93 296 79 c 0
292 65 284 52 274 41 c 0
253 19 225 5 196 0 c 0
153 -7 107 1 71 25 c 0
35 49 8 87 -1 130 c 0
61 130 l 0
69 106 87 85 109 72 c 0
131 59 157 54 183 59 c 0
197 61 211 66 221 76 c 0
227 81 231 87 234 93 c 0
237 100 238 107 238 115 c 0
236 125 231 134 224 142 c 0
217 150 208 155 198 160 c 0
180 169 159 174 140 181 c 0
109 190 78 200 52 218 c 0
38 227 26 238 17 251 c 0
8 264 1 279 -1 295 c 0
-3 309 -1 324 3 339 c 0
7 353 15 366 25 377 c 0
45 399 73 413 103 419 c 0
145 427 191 418 228 394 c 0
264 370 291 332 301 290 c 0
Z
Spiro
301 290 v
238 290 v
116 360 c
61 304 c
159 238 a
239 213 h
301 124 c
196 0 c
-1 130 v
61 130 v
183 59 c
238 115 c
140 181 a
60 206 h
-1 295 c
103 419 c
0 0 z
EndSpiro
EndSplineSet
        EndChar
StartChar: u
Encoding: 117 117 0
Width: 373
InSpiro: 1
        Flags: H
        LayerCount: 2
        Back
        SplineSet
274 30 m 0
269 30 l 0
269 394 l 0
274 394 l 0
274 30 l 0
Z
269 134 m 0
274 134 l 0
271 109 261 85 245 66 c 0
228 48 206 35 182 30 c 0
159 25 135 27 113 36 c 0
92 45 74 60 60 79 c 0
47 98 38 120 34 142 c 0
30 165 29 188 30 212 c 0
30 394 l 0
34 394 l 0
34 212 l 0
34 189 34 166 38 144 c 0
42 122 50 100 63 82 c 0
76 63 94 48 114 39 c 0
135 31 158 28 181 33 c 0
204 37 226 50 242 68 c 0
257 86 267 110 269 134 c 0
Z
Spiro
274 30 v
269 30 v
269 394 v
274 394 v
269 134 v
274 134 v
182 30 c
30 212 [
30 394 v
34 394 v
34 212 ]
181 33 c
0 0 z
EndSpiro
EndSplineSet
        Fore
        SplineSet
301 0 m 0
238 0 l 0
238 420 l 0
301 420 l 0
301 0 l 0
Z
238 160 m 0
301 160 l 0
304 124 294 87 273 58 c 0
252 29 220 8 186 0 c 0
159 -6 130 -4 104 4 c 0
78 13 55 30 38 52 c 0
21 74 10 100 4 127 c 0
0 154 -1 182 -1 210 c 0
-1 420 l 0
61 420 l 0
61 210 l 0
61 191 61 173 63 155 c 0
66 138 72 120 81 105 c 0
91 89 104 76 120 68 c 0
136 59 155 56 173 59 c 0
195 62 215 75 228 94 c 0
240 113 244 138 238 160 c 0
Z
Spiro
301 0 v
238 0 v
238 420 v
301 420 v
238 160 v
301 160 v
186 0 c
-1 210 [
-1 420 v
61 420 v
61 210 ]
173 59 c
0 0 z
EndSpiro
EndSplineSet
        EndChar
StartChar: v
Encoding: 118 118 0
Width: 373
InSpiro: 1
        Flags: H
        LayerCount: 2
        Back
        SplineSet
30 434 m 0
34 434 l 0
152 38 l 0
269 434 l 0
274 434 l 0
154 30 l 0
149 30 l 0
30 434 l 0
Z
Spiro
30 434 v
34 434 v
152 38 v
269 434 v
274 434 v
154 30 v
149 30 v
0 0 z
EndSpiro
EndSplineSet
        Fore
        SplineSet
-1 460 m 0
61 460 l 0
150 134 l 0
238 460 l 0
301 460 l 0
181 0 l 0
118 0 l 0
-1 460 l 0
Z
Spiro
-1 460 v
61 460 v
150 134 v
238 460 v
301 460 v
181 0 v
118 0 v
0 0 z
EndSpiro
EndSplineSet
        EndChar
StartChar: w
Encoding: 119 119 0
Width: 373
InSpiro: 1
        Flags: H
        LayerCount: 2
        Back
        SplineSet
30 434 m 0
34 434 l 0
92 45 l 0
149 434 l 0
154 434 l 0
212 45 l 0
269 434 l 0
274 434 l 0
214 30 l 0
209 30 l 0
152 418 l 0
94 30 l 0
89 30 l 0
30 434 l 0
Z
Spiro
30 434 v
34 434 v
92 45 v
149 434 v
154 434 v
212 45 v
269 434 v
274 434 v
214 30 v
209 30 v
152 418 v
94 30 v
89 30 v
0 0 z
EndSpiro
EndSplineSet
        Fore
        SplineSet
-1 460 m 0
61 460 l 0
90 232 l 0
118 460 l 0
181 460 l 0
210 232 l 0
238 460 l 0
301 460 l 0
241 0 l 0
178 0 l 0
150 227 l 0
121 0 l 0
58 0 l 0
-1 460 l 0
Z
Spiro
-1 460 v
61 460 v
90 232 v
118 460 v
181 460 v
210 232 v
238 460 v
301 460 v
241 0 v
178 0 v
150 227 v
121 0 v
58 0 v
0 0 z
EndSpiro
EndSplineSet
        EndChar
StartChar: x
Encoding: 120 120 0
Width: 373
InSpiro: 1
        Flags: H
        LayerCount: 2
        Back
        SplineSet
30 434 m 0
34 434 l 0
274 30 l 0
269 30 l 0
30 434 l 0
Z
269 434 m 0
274 434 l 0
34 30 l 0
30 30 l 0
269 434 l 0
Z
Spiro
30 434 v
34 434 v
274 30 v
269 30 v
269 434 v
274 434 v
34 30 v
30 30 v
0 0 z
EndSpiro
EndSplineSet
        Fore
        SplineSet
-1 460 m 0
61 460 l 0
301 0 l 0
238 0 l 0
-1 460 l 0
Z
238 460 m 0
301 460 l 0
61 0 l 0
-1 0 l 0
238 460 l 0
Z
Spiro
-1 460 v
61 460 v
301 0 v
238 0 v
238 460 v
301 460 v
61 0 v
-1 0 v
0 0 z
EndSpiro
EndSplineSet
        EndChar
StartChar: y
Encoding: 121 121 0
Width: 373
InSpiro: 1
        Flags: H
        LayerCount: 2
        Back
        SplineSet
269 434 m 0
274 434 l 0
274 32 l 0
274 -26 275 -86 261 -143 c 0
254 -171 243 -199 224 -222 c 0
206 -245 180 -263 152 -269 c 0
122 -274 89 -266 66 -246 c 0
43 -226 29 -196 30 -166 c 0
34 -166 l 0
33 -195 46 -224 68 -243 c 0
90 -263 122 -271 151 -266 c 0
179 -260 204 -242 222 -220 c 0
240 -197 251 -169 257 -141 c 0
271 -85 268 -26 269 31 c 0
269 434 l 0
Z
30 434 m 0
34 434 l 0
34 232 l 0
34 188 34 144 52 105 c 0
61 85 74 67 92 54 c 0
109 41 130 33 152 34 c 0
173 34 194 42 211 55 c 0
228 68 241 86 250 105 c 0
268 144 268 189 269 232 c 0
269 434 l 0
274 434 l 0
274 232 l 0
274 187 272 142 254 102 c 0
244 82 231 64 213 51 c 0
195 38 174 30 152 30 c 0
129 29 108 38 90 51 c 0
72 64 59 82 49 102 c 0
31 142 30 187 30 232 c 0
30 434 l 0
Z
Spiro
269 434 v
274 434 v
274 32 ]
152 -269 c
30 -166 v
34 -166 v
151 -266 c
269 31 [
30 434 v
34 434 v
34 232 ]
152 34 c
269 232 [
269 434 v
274 434 v
274 232 ]
152 30 c
30 232 [
0 0 z
EndSpiro
EndSplineSet
        Fore
        SplineSet
238 460 m 0
301 460 l 0
301 30 l 0
301 -35 301 -101 282 -163 c 0
272 -194 258 -224 236 -248 c 0
215 -273 186 -292 155 -299 c 0
133 -303 110 -302 89 -296 c 0
68 -290 48 -278 33 -262 c 0
17 -246 6 -227 0 -205 c 0
-5 -184 -6 -161 -1 -140 c 0
61 -140 l 0
56 -152 55 -165 57 -178 c 0
60 -191 65 -203 74 -213 c 0
82 -223 93 -231 105 -235 c 0
117 -240 131 -241 144 -240 c 0
156 -238 168 -232 179 -225 c 0
190 -218 199 -208 206 -197 c 0
221 -176 228 -151 232 -125 c 0
241 -74 237 -22 238 29 c 0
238 460 l 0
Z
-1 460 m 0
61 460 l 0
61 230 l 0
61 194 60 157 72 124 c 0
78 107 88 91 101 79 c 0
114 67 132 59 150 60 c 0
167 60 184 68 198 80 c 0
211 91 220 107 226 124 c 0
238 158 237 194 238 230 c 0
238 460 l 0
301 460 l 0
301 230 l 0
301 204 300 178 297 152 c 0
293 127 286 102 274 79 c 0
261 56 244 36 222 22 c 0
201 8 175 0 150 0 c 0
124 0 98 8 77 22 c 0
55 36 38 56 25 79 c 0
13 102 6 127 2 152 c 0
0 178 -1 204 -1 230 c 0
-1 460 l 0
Z
Spiro
238 460 v
301 460 v
301 30 ]
155 -299 c
-1 -140 v
61 -140 v
144 -240 c
238 29 [
-1 460 v
61 460 v
61 230 ]
150 60 c
238 230 [
238 460 v
301 460 v
301 230 ]
150 0 c
-1 230 [
0 0 z
EndSpiro
EndSplineSet
        EndChar
StartChar: z
Encoding: 122 122 0
Width: 373
InSpiro: 1
        Flags: H
        LayerCount: 2
        Back
        SplineSet
30 430 m 0
30 434 l 0
274 434 l 0
274 434 l 0
35 34 l 0
274 34 l 0
274 30 l 0
30 30 l 0
30 30 l 0
268 430 l 0
30 430 l 0
Z
Spiro
30 430 v
30 434 v
274 434 v
274 434 v
35 34 v
274 34 v
274 30 v
30 30 v
30 30 v
268 430 v
0 0 z
EndSpiro
EndSplineSet
        Fore
        SplineSet
-1 400 m 0
-1 460 l 0
301 460 l 0
301 460 l 0
84 60 l 0
301 60 l 0
301 0 l 0
-1 0 l 0
-1 0 l 0
215 400 l 0
-1 400 l 0
Z
Spiro
-1 400 v
-1 460 v
301 460 v
301 460 v
84 60 v
301 60 v
301 0 v
-1 0 v
-1 0 v
215 400 v
0 0 z
EndSpiro
EndSplineSet
        EndChar
